SplineFontDB: 3.0
FontName: AVHersheyDuplexLight
FullName: AVHershey Duplex Light
FamilyName: AVHershey Duplex
Weight: Light
Copyright: Made in 2016 by Stewart C. Russell - scruss.com\n\nLicence: Dual-licensed CC0/WTFPL (srsly)\n\nDerived from character stroke coordinates by Allen V. Hershey published in "Calligraphy for Computers" (US Naval Weapons Laboratory, 1967-08-01, NWL Report No. 2101, NTIS accession number AD-662 398) and elsewhere. These coordinates were published without copyright.\n\nThe efforts of the Usenet Font Consortium (James Hurt, et al) who reformatted Hershey's data and published it to mod.sources on 1986-04-01 [Volume 4, Issue 42] are greatly appreciated.
UComments: "2016-2-6: Created with FontForge (http://fontforge.org)"
Version: 000.001
ItalicAngle: 0
UnderlinePosition: -100
UnderlineWidth: 50
Ascent: 800
Descent: 200
InvalidEm: 0
LayerCount: 2
Layer: 0 0 "Back" 1
Layer: 1 0 "Fore" 0
XUID: [1021 830 706015224 10088309]
FSType: 0
OS2Version: 0
OS2_WeightWidthSlopeOnly: 0
OS2_UseTypoMetrics: 1
CreationTime: 1454819008
ModificationTime: 1454976778
PfmFamily: 17
TTFWeight: 200
TTFWidth: 5
LineGap: 90
VLineGap: 0
OS2TypoAscent: 0
OS2TypoAOffset: 1
OS2TypoDescent: 0
OS2TypoDOffset: 1
OS2TypoLinegap: 90
OS2WinAscent: 0
OS2WinAOffset: 1
OS2WinDescent: 0
OS2WinDOffset: 1
HheadAscent: 0
HheadAOffset: 1
HheadDescent: 0
HheadDOffset: 1
OS2Vendor: 'PfEd'
MarkAttachClasses: 1
DEI: 91125
Encoding: ISO8859-1
UnicodeInterp: none
NameList: AGL For New Fonts
DisplaySize: -48
AntiAlias: 1
FitToEm: 1
WinInfo: 0 29 11
BeginPrivate: 0
EndPrivate
BeginChars: 260 83

StartChar: exclam
Encoding: 33 33 0
Width: 304
VWidth: 0
Flags: W
HStem: 1 19<142 161> 28 20<148 156> 55 19<148 156> 83 19<142 161> 194 19<148 156> 580 19<148 156>
VStem: 101 19<42 61> 128 20<213 580> 156 20<213 580> 183 19<42 61>
LayerCount: 2
Back
Fore
SplineSet
103 72 m 1
 134 102 l 1
 169 102 l 1
 202 69 l 1
 202 34 l 1
 169 1 l 1
 134 1 l 1
 101 34 l 1
 100 65 l 1
 103 72 l 1
142 83 m 1
 133 74 l 1
 171 74 l 1
 161 83 l 1
 142 83 l 1
130 70 m 1
 120 61 l 1
 120 42 l 1
 130 33 l 1
 128 65 l 1
 130 70 l 1
148 55 m 1
 148 48 l 1
 156 48 l 1
 156 55 l 1
 148 55 l 1
133 29 m 1
 142 20 l 1
 161 20 l 1
 171 29 l 1
 138 28 l 1
 133 29 l 1
174 33 m 1
 183 42 l 1
 183 61 l 1
 174 70 l 1
 176 38 l 1
 174 33 l 1
128 590 m 1
 134 599 l 1
 166 600 l 1
 173 597 l 1
 176 590 l 1
 176 203 l 1
 173 196 l 1
 166 193 l 1
 134 194 l 1
 128 203 l 1
 128 590 l 1
148 580 m 1
 148 213 l 1
 156 213 l 1
 156 580 l 1
 148 580 l 1
EndSplineSet
EndChar

StartChar: dollar
Encoding: 36 36 1
Width: 525
VWidth: 0
Flags: W
HStem: -110 20<259 267> 0 20<223 239 259 267 287 303> 28 20<224 239 259 267 287 323> 83 20<107 134> 498 19<391 418> 552 20<223 239 259 267 287 302> 580 20<223 239 259 267 287 303> 690 20<259 267>
VStem: 74 19<454 503> 101 20<454 503> 239 20<-90 0 20 28 48 298 358 552 572 580 600 690> 267 20<-90 0 20 28 48 284 344 552 572 580 600 690> 405 20<123 173> 432 20<123 173>
LayerCount: 2
Back
Fore
SplineSet
239 600 m 1
 240 704 l 1
 249 710 l 1
 280 710 l 1
 287 700 l 1
 287 600 l 1
 307 599 l 1
 390 572 l 1
 449 514 l 1
 452 507 l 1
 449 500 l 1
 442 497 l 1
 383 498 l 1
 354 527 l 1
 302 552 l 1
 287 552 l 1
 287 334 l 1
 364 295 l 1
 422 238 l 1
 451 180 l 1
 452 120 l 1
 424 61 l 1
 394 31 l 1
 307 1 l 1
 287 0 l 1
 287 -100 l 1
 284 -108 l 1
 277 -110 l 1
 249 -110 l 1
 240 -104 l 1
 239 0 l 1
 218 1 l 1
 135 28 l 1
 76 86 l 1
 73 93 l 1
 76 100 l 1
 83 103 l 1
 142 102 l 1
 172 73 l 1
 224 48 l 1
 239 48 l 1
 239 308 l 1
 134 360 l 1
 104 390 l 1
 74 447 l 1
 73 507 l 1
 76 514 l 1
 135 572 l 1
 218 599 l 1
 239 600 l 1
102 512 m 1
 93 503 l 1
 93 454 l 1
 119 403 l 1
 130 392 l 1
 101 452 l 1
 102 512 l 1
133 543 m 1
 218 572 l 1
 239 572 l 1
 239 580 l 1
 223 580 l 1
 144 554 l 1
 133 543 l 1
259 690 m 1
 259 600 l 1
 267 600 l 1
 267 690 l 1
 259 690 l 1
259 580 m 1
 259 572 l 1
 267 572 l 1
 267 580 l 1
 259 580 l 1
259 552 m 1
 259 348 l 1
 267 344 l 1
 267 552 l 1
 259 552 l 1
239 552 m 1
 223 552 l 1
 144 526 l 1
 121 503 l 1
 121 454 l 1
 146 404 l 1
 239 358 l 1
 239 552 l 1
239 335 m 1
 134 388 l 1
 144 377 l 1
 239 330 l 1
 239 335 l 1
239 20 m 1
 239 28 l 1
 217 29 l 1
 162 56 l 1
 134 83 l 1
 107 83 l 1
 144 46 l 1
 223 20 l 1
 239 20 l 1
259 28 m 1
 259 20 l 1
 267 20 l 1
 267 28 l 1
 259 28 l 1
259 48 m 1
 267 48 l 1
 267 294 l 1
 259 298 l 1
 259 48 l 1
259 320 m 1
 267 316 l 1
 267 321 l 1
 259 325 l 1
 259 320 l 1
287 580 m 1
 287 572 l 1
 309 571 l 1
 364 544 l 1
 391 517 l 1
 418 517 l 1
 382 554 l 1
 303 580 l 1
 287 580 l 1
287 311 m 1
 287 306 l 1
 364 267 l 1
 354 278 l 1
 287 311 l 1
259 0 m 1
 259 -90 l 1
 267 -90 l 1
 267 0 l 1
 259 0 l 1
287 20 m 1
 303 20 l 1
 328 29 l 1
 323 33 l 1
 304 28 l 1
 287 28 l 1
 287 20 l 1
287 48 m 1
 303 48 l 1
 355 65 l 1
 386 86 l 1
 405 123 l 1
 405 173 l 1
 379 225 l 1
 354 250 l 1
 287 284 l 1
 287 48 l 1
396 236 m 1
 425 176 l 1
 425 120 l 1
 417 103 l 1
 421 100 l 1
 432 123 l 1
 432 173 l 1
 406 225 l 1
 396 236 l 1
364 47 m 1
 344 34 l 1
 382 46 l 1
 392 57 l 1
 390 56 l 1
 364 47 l 1
396 60 m 1
 406 71 l 1
 410 77 l 1
 402 72 l 1
 396 60 l 1
EndSplineSet
EndChar

StartChar: ampersand
Encoding: 38 38 2
Width: 690
VWidth: 0
Flags: W
HStem: 0 20<195 301 554 597> 28 20<195 301 554 597> 359 20<554 597> 387 20<554 597> 552 20<278 301> 580 20<278 301>
VStem: 73 19<123 173> 101 19<123 173> 183 20<454 505> 211 20<432.192 505> 349 20<454 505> 376 20<454 505> 597 20<20 28 379 387>
LayerCount: 2
Back
Fore
SplineSet
230 337 m 1
 211 366 l 1
 183 449 l 1
 183 507 l 1
 213 569 l 1
 276 600 l 1
 308 599 l 1
 366 569 l 1
 395 512 l 1
 396 452 l 1
 368 392 l 1
 310 334 l 1
 291 322 l 1
 311 292 l 1
 411 172 l 1
 460 317 l 1
 490 376 l 1
 552 407 l 1
 607 407 l 1
 614 404 l 1
 617 397 l 1
 617 369 l 1
 611 360 l 1
 554 359 l 1
 523 343 l 1
 506 310 l 1
 445 132 l 1
 503 73 l 1
 554 48 l 1
 607 48 l 1
 614 45 l 1
 617 38 l 1
 617 10 l 1
 614 3 l 1
 607 0 l 1
 547 1 l 1
 490 31 l 1
 426 94 l 1
 421 86 l 1
 366 31 l 1
 303 0 l 1
 193 0 l 1
 131 31 l 1
 101 61 l 1
 73 116 l 1
 73 180 l 1
 103 238 l 1
 158 293 l 1
 230 337 l 1
129 236 m 1
 118 225 l 1
 92 173 l 1
 92 123 l 1
 118 71 l 1
 129 61 l 1
 101 116 l 1
 100 176 l 1
 129 236 l 1
161 268 m 1
 243 317 l 1
 241 320 l 1
 171 278 l 1
 161 268 l 1
260 327 m 1
 263 329 l 1
 261 332 l 1
 258 330 l 1
 260 327 l 1
280 339 m 1
 297 349 l 1
 308 360 l 1
 278 342 l 1
 280 339 l 1
340 392 m 1
 350 403 l 1
 376 454 l 1
 376 505 l 1
 365 527 l 1
 361 525 l 1
 369 507 l 1
 369 452 l 1
 340 392 l 1
355 548 m 1
 351 555 l 1
 344 558 l 1
 348 551 l 1
 355 548 l 1
323 569 m 1
 301 580 l 1
 278 580 l 1
 256 569 l 1
 258 565 l 1
 276 572 l 1
 303 572 l 1
 321 565 l 1
 323 569 l 1
235 558 m 1
 228 555 l 1
 224 548 l 1
 231 551 l 1
 235 558 l 1
333 537 m 1
 301 552 l 1
 278 552 l 1
 246 537 l 1
 231 505 l 1
 231 454 l 1
 257 373 l 1
 267 359 l 1
 297 377 l 1
 323 403 l 1
 349 454 l 1
 349 505 l 1
 333 537 l 1
218 525 m 1
 214 527 l 1
 203 505 l 1
 203 454 l 1
 230 373 l 1
 247 347 l 1
 250 349 l 1
 239 366 l 1
 211 452 l 1
 211 507 l 1
 218 525 l 1
274 312 m 1
 271 311 l 1
 284 292 l 1
 403 149 l 1
 296 280 l 1
 274 312 l 1
254 300 m 1
 171 251 l 1
 146 225 l 1
 120 173 l 1
 120 123 l 1
 145 73 l 1
 195 48 l 1
 301 48 l 1
 353 73 l 1
 378 99 l 1
 393 129 l 1
 268 280 l 1
 254 300 l 1
597 387 m 1
 554 387 l 1
 532 375 l 1
 534 371 l 1
 552 379 l 1
 597 379 l 1
 597 387 l 1
511 365 m 1
 504 362 l 1
 501 355 l 1
 508 358 l 1
 511 365 l 1
495 332 m 1
 490 334 l 1
 478 310 l 1
 426 154 l 1
 431 149 l 1
 487 317 l 1
 495 332 l 1
418 133 m 1
 417 132 l 1
 420 128 l 1
 421 129 l 1
 418 133 l 1
407 113 m 1
 395 88 l 1
 406 99 l 1
 411 109 l 1
 407 113 l 1
597 20 m 1
 597 28 l 1
 547 29 l 1
 492 56 l 1
 503 46 l 1
 554 20 l 1
 597 20 l 1
363 56 m 1
 303 28 l 1
 193 28 l 1
 133 56 l 1
 144 46 l 1
 195 20 l 1
 301 20 l 1
 353 46 l 1
 363 56 l 1
EndSplineSet
EndChar

StartChar: parenleft
Encoding: 40 40 3
Width: 386
VWidth: 0
Flags: W
HStem: -193 21G<268 312>
VStem: 72 20<169 348.259> 99 20<69 98.7778 169 348.259 418.222 449>
LayerCount: 2
Back
Fore
SplineSet
213 652 m 1
 271 710 l 1
 302 710 l 1
 312 704 l 1
 310 693 l 1
 255 639 l 1
 201 557 l 1
 146 449 l 1
 119 313 l 1
 119 204 l 1
 146 69 l 1
 201 -40 l 1
 255 -122 l 1
 312 -180 l 1
 312 -187 l 1
 302 -193 l 1
 275 -193 l 1
 268 -190 l 1
 211 -134 l 1
 156 -51 l 1
 99 63 l 1
 72 201 l 1
 72 316 l 1
 99 454 l 1
 155 567 l 1
 213 652 l 1
238 650 m 1
 227 639 l 1
 173 557 l 1
 119 449 l 1
 92 313 l 1
 92 204 l 1
 119 69 l 1
 173 -40 l 1
 227 -122 l 1
 238 -132 l 1
 183 -50 l 1
 127 63 l 1
 99 201 l 1
 99 314 l 1
 128 456 l 1
 183 567 l 1
 238 650 l 1
EndSplineSet
EndChar

StartChar: parenright
Encoding: 41 41 4
Width: 385
VWidth: 0
Flags: W
HStem: -193 21G<72 116>
VStem: 265 20<69 92.1111 169 348.259 422.889 449> 292 20<169 348.259>
LayerCount: 2
Back
Fore
SplineSet
72 700 m 1
 74 708 l 1
 82 710 l 1
 109 710 l 1
 116 708 l 1
 173 651 l 1
 228 568 l 1
 285 454 l 1
 312 314 l 1
 312 201 l 1
 284 61 l 1
 229 -50 l 1
 173 -134 l 1
 116 -190 l 1
 109 -193 l 1
 78 -193 l 1
 72 -187 l 1
 72 -180 l 1
 129 -122 l 1
 183 -40 l 1
 238 69 l 1
 265 204 l 1
 265 313 l 1
 238 449 l 1
 183 557 l 1
 129 639 l 1
 74 693 l 1
 72 700 l 1
146 650 m 1
 201 567 l 1
 257 454 l 1
 285 316 l 1
 285 203 l 1
 256 61 l 1
 201 -50 l 1
 146 -132 l 1
 157 -122 l 1
 211 -40 l 1
 265 69 l 1
 292 204 l 1
 292 313 l 1
 265 449 l 1
 211 557 l 1
 157 639 l 1
 146 650 l 1
EndSplineSet
EndChar

StartChar: asterisk
Encoding: 42 42 5
Width: 441
VWidth: 0
Flags: W
HStem: 579 20G<213 243.429>
VStem: 72 20<359 362 486 489> 210 20<283 323 525 566> 348 20<359 362 486 489>
CounterMasks: 1 70
LayerCount: 2
Back
Fore
SplineSet
72 507 m 1
 75 514 l 1
 79 517 l 1
 113 517 l 1
 205 448 l 1
 182 564 l 1
 213 597 l 1
 224 599 l 1
 258 564 l 1
 235 448 l 1
 327 517 l 1
 358 517 l 1
 367 512 l 1
 368 480 l 1
 365 472 l 1
 247 424 l 1
 365 376 l 1
 368 369 l 1
 367 336 l 1
 358 331 l 1
 327 332 l 1
 235 401 l 1
 258 285 l 1
 227 252 l 1
 216 249 l 1
 182 285 l 1
 205 401 l 1
 113 332 l 1
 82 331 l 1
 73 336 l 1
 72 369 l 1
 75 376 l 1
 193 424 l 1
 75 472 l 1
 72 480 l 1
 72 507 l 1
92 489 m 1
 92 486 l 1
 108 480 l 1
 92 489 l 1
332 480 m 1
 348 486 l 1
 348 489 l 1
 332 480 l 1
210 525 m 1
 210 566 l 1
 203 559 l 1
 210 525 l 1
230 566 m 1
 230 525 l 1
 237 559 l 1
 230 566 l 1
92 359 m 1
 108 369 l 1
 92 362 l 1
 92 359 l 1
230 323 m 1
 230 283 l 1
 237 289 l 1
 230 323 l 1
210 283 m 1
 210 323 l 1
 203 289 l 1
 210 283 l 1
348 359 m 1
 348 362 l 1
 332 369 l 1
 348 359 l 1
EndSplineSet
EndChar

StartChar: plus
Encoding: 43 43 6
Width: 691
VWidth: 0
Flags: W
HStem: 28 20<341 349> 249 20<120 321 341 349 369 570> 276 20<120 321 341 349 369 570> 497 19<341 349>
VStem: 101 19<269 276> 321 20<48 249 269 276 296 497> 349 20<48 249 269 276 296 497> 570 20<269 276>
LayerCount: 2
Back
Fore
SplineSet
100 286 m 1
 103 293 l 1
 110 296 l 1
 321 296 l 1
 321 507 l 1
 327 516 l 1
 359 517 l 1
 366 514 l 1
 369 507 l 1
 369 296 l 1
 580 296 l 1
 589 290 l 1
 590 259 l 1
 587 252 l 1
 580 249 l 1
 369 249 l 1
 369 38 l 1
 362 28 l 1
 331 28 l 1
 324 31 l 1
 321 38 l 1
 321 249 l 1
 110 249 l 1
 101 255 l 1
 100 286 l 1
120 276 m 1
 120 269 l 1
 321 269 l 1
 321 276 l 1
 120 276 l 1
341 497 m 1
 341 296 l 1
 349 296 l 1
 349 497 l 1
 341 497 l 1
341 276 m 1
 341 269 l 1
 349 269 l 1
 349 276 l 1
 341 276 l 1
341 249 m 1
 341 48 l 1
 349 48 l 1
 349 249 l 1
 341 249 l 1
369 269 m 1
 570 269 l 1
 570 276 l 1
 369 276 l 1
 369 269 l 1
EndSplineSet
EndChar

StartChar: comma
Encoding: 44 44 7
Width: 304
VWidth: 0
Flags: W
HStem: 1 19<142 161> 29 19<148 156> 55 20<148 156> 83 19<142 161>
VStem: 100 20<42 61> 128 20<48 55> 156 18<48 55> 183 19<42 61>
LayerCount: 2
Back
Fore
SplineSet
203 38 m 1
 202 -21 l 1
 174 -79 l 1
 115 -109 l 1
 104 -108 l 1
 100 -101 l 1
 103 -94 l 1
 157 -66 l 1
 171 -10 l 1
 161 0 l 1
 134 1 l 1
 103 31 l 1
 100 38 l 1
 100 65 l 1
 103 72 l 1
 134 102 l 1
 169 102 l 1
 202 69 l 1
 203 38 l 1
128 65 m 1
 130 70 l 1
 120 61 l 1
 120 42 l 1
 130 33 l 1
 128 38 l 1
 128 65 l 1
138 75 m 1
 171 74 l 1
 161 83 l 1
 142 83 l 1
 133 74 l 1
 138 75 l 1
174 70 m 1
 174 33 l 1
 183 42 l 1
 183 61 l 1
 174 70 l 1
171 29 m 1
 133 29 l 1
 142 20 l 1
 161 20 l 1
 171 29 l 1
148 55 m 1
 148 48 l 1
 156 48 l 1
 156 55 l 1
 148 55 l 1
EndSplineSet
EndChar

StartChar: hyphen
Encoding: 45 45 8
Width: 691
VWidth: 0
Flags: W
HStem: 249 20<120 570> 276 20<120 570>
VStem: 101 19<269 276> 570 20<269 276>
LayerCount: 2
Back
Fore
SplineSet
100 286 m 1
 103 293 l 1
 110 296 l 1
 580 296 l 1
 589 290 l 1
 590 259 l 1
 587 252 l 1
 580 249 l 1
 110 249 l 1
 101 255 l 1
 100 286 l 1
120 276 m 1
 120 269 l 1
 570 269 l 1
 570 276 l 1
 120 276 l 1
EndSplineSet
EndChar

StartChar: period
Encoding: 46 46 9
Width: 304
VWidth: 0
Flags: W
HStem: 1 19<142 161> 28 20<148 156> 55 19<148 156> 83 19<142 161>
VStem: 101 19<42 61> 183 19<42 61>
LayerCount: 2
Back
Fore
SplineSet
103 72 m 1
 134 102 l 1
 169 102 l 1
 202 69 l 1
 202 34 l 1
 169 1 l 1
 134 1 l 1
 101 34 l 1
 100 65 l 1
 103 72 l 1
142 83 m 1
 133 74 l 1
 171 74 l 1
 161 83 l 1
 142 83 l 1
130 70 m 1
 120 61 l 1
 120 42 l 1
 130 33 l 1
 128 65 l 1
 130 70 l 1
148 55 m 1
 148 48 l 1
 156 48 l 1
 156 55 l 1
 148 55 l 1
133 29 m 1
 142 20 l 1
 161 20 l 1
 171 29 l 1
 138 28 l 1
 133 29 l 1
174 33 m 1
 183 42 l 1
 183 61 l 1
 174 70 l 1
 176 38 l 1
 174 33 l 1
EndSplineSet
EndChar

StartChar: slash
Encoding: 47 47 10
Width: 635
VWidth: 0
Flags: W
HStem: -193 20<72 76> 690 20<557 562>
LayerCount: 2
Back
Fore
SplineSet
46 -178 m 1
 543 705 l 1
 552 710 l 1
 583 710 l 1
 589 704 l 1
 588 696 l 1
 91 -188 l 1
 82 -193 l 1
 50 -192 l 1
 45 -186 l 1
 46 -178 l 1
557 690 m 1
 72 -173 l 1
 76 -173 l 1
 562 690 l 1
 557 690 l 1
EndSplineSet
EndChar

StartChar: zero
Encoding: 48 48 11
Width: 551
VWidth: 0
Flags: W
HStem: 1 19<249 301> 28 20<249 301> 552 20<249 301> 580 20<249 301>
VStem: 72 20<224.741 375.259> 99 20<224.741 375.259> 431 20<124 141.296 224.741 375.259 455.074 476> 458 20<224.741 375.259>
LayerCount: 2
Back
Fore
SplineSet
246 600 m 1
 306 599 l 1
 394 568 l 1
 451 481 l 1
 478 341 l 1
 478 257 l 1
 449 115 l 1
 392 30 l 1
 303 0 l 1
 244 1 l 1
 156 32 l 1
 99 119 l 1
 72 259 l 1
 72 343 l 1
 101 485 l 1
 158 570 l 1
 246 600 l 1
129 485 m 1
 157 528 l 1
 155 531 l 1
 119 476 l 1
 92 340 l 1
 92 260 l 1
 119 124 l 1
 155 69 l 1
 157 72 l 1
 127 119 l 1
 99 259 l 1
 99 343 l 1
 129 485 l 1
170 547 m 1
 176 556 l 1
 171 554 l 1
 165 546 l 1
 170 547 l 1
201 557 m 1
 247 572 l 1
 303 572 l 1
 349 557 l 1
 348 564 l 1
 301 580 l 1
 249 580 l 1
 202 564 l 1
 201 557 l 1
374 556 m 1
 380 547 l 1
 385 546 l 1
 379 554 l 1
 374 556 l 1
393 528 m 1
 423 481 l 1
 451 341 l 1
 451 257 l 1
 423 119 l 1
 393 72 l 1
 395 69 l 1
 431 124 l 1
 458 260 l 1
 458 340 l 1
 431 476 l 1
 395 531 l 1
 393 528 l 1
367 70 m 1
 404 124 l 1
 431 260 l 1
 431 340 l 1
 404 476 l 1
 367 530 l 1
 301 552 l 1
 249 552 l 1
 183 530 l 1
 146 476 l 1
 119 340 l 1
 119 260 l 1
 146 124 l 1
 183 70 l 1
 249 48 l 1
 301 48 l 1
 367 70 l 1
165 54 m 1
 171 46 l 1
 176 44 l 1
 170 53 l 1
 165 54 l 1
201 43 m 1
 202 36 l 1
 249 20 l 1
 301 20 l 1
 348 36 l 1
 349 43 l 1
 303 28 l 1
 247 28 l 1
 201 43 l 1
374 44 m 1
 379 46 l 1
 385 54 l 1
 380 53 l 1
 374 44 l 1
EndSplineSet
EndChar

StartChar: one
Encoding: 49 49 12
Width: 552
VWidth: 0
Flags: W
HStem: 1 19<285 293> 580 20G<296 310>
VStem: 155 20<468 473> 265 20<20 511> 293 20<20 566>
LayerCount: 2
Back
Fore
SplineSet
155 452 m 1
 155 480 l 1
 157 487 l 1
 214 515 l 1
 296 597 l 1
 303 600 l 1
 310 597 l 1
 313 590 l 1
 313 10 l 1
 306 1 l 1
 271 1 l 1
 265 10 l 1
 265 511 l 1
 224 471 l 1
 169 443 l 1
 158 445 l 1
 155 452 l 1
175 473 m 1
 175 468 l 1
 214 488 l 1
 224 498 l 1
 175 473 l 1
270 543 m 1
 279 544 l 1
 285 535 l 1
 285 20 l 1
 293 20 l 1
 293 566 l 1
 270 543 l 1
EndSplineSet
EndChar

StartChar: two
Encoding: 50 50 13
Width: 552
VWidth: 0
Flags: W
HStem: 0 20<104 105 132 458> 28 20<157 458> 443 19<119 127> 552 20<222 328> 580 20<222 328>
VStem: 99 20<462 477> 127 20<462 477> 403 19<427 477> 431 19<427 477> 458 20<20 28>
LayerCount: 2
Back
Fore
SplineSet
72 10 m 1
 74 17 l 1
 322 292 l 1
 377 374 l 1
 403 427 l 1
 403 477 l 1
 378 527 l 1
 328 552 l 1
 222 552 l 1
 172 527 l 1
 147 477 l 1
 147 452 l 1
 144 445 l 1
 137 442 l 1
 105 443 l 1
 99 452 l 1
 99 480 l 1
 128 539 l 1
 160 571 l 1
 220 600 l 1
 330 600 l 1
 390 571 l 1
 422 539 l 1
 450 484 l 1
 450 420 l 1
 421 364 l 1
 365 280 l 1
 157 48 l 1
 468 48 l 1
 478 41 l 1
 478 6 l 1
 468 0 l 1
 82 0 l 1
 75 3 l 1
 72 10 l 1
104 20 m 1
 105 20 l 1
 112 28 l 1
 111 28 l 1
 104 20 l 1
129 48 m 1
 350 292 l 1
 404 374 l 1
 431 427 l 1
 431 477 l 1
 405 529 l 1
 394 539 l 1
 423 480 l 1
 422 420 l 1
 394 365 l 1
 338 280 l 1
 129 48 l 1
390 544 m 1
 380 554 l 1
 328 580 l 1
 222 580 l 1
 170 554 l 1
 160 544 l 1
 220 572 l 1
 330 572 l 1
 390 544 l 1
156 539 m 1
 145 529 l 1
 119 477 l 1
 119 462 l 1
 127 462 l 1
 128 484 l 1
 156 539 l 1
132 20 m 1
 458 20 l 1
 458 28 l 1
 139 28 l 1
 132 20 l 1
EndSplineSet
EndChar

StartChar: three
Encoding: 51 51 14
Width: 552
VWidth: 0
Flags: W
HStem: 1 19<222 302> 28 20<143 156.519 206.706 317.294> 110 20<99 104> 331 20<269 322> 359 20<290 307> 552 20<148 372> 580 20<148 394 419 421>
VStem: 129 19<572 580> 432 20<177 202> 459 20<155.125 206>
LayerCount: 2
Back
Fore
SplineSet
139 86 m 1
 170 65 l 1
 222 48 l 1
 302 48 l 1
 354 65 l 1
 390 89 l 1
 414 125 l 1
 432 177 l 1
 432 202 l 1
 414 254 l 1
 390 290 l 1
 354 314 l 1
 302 331 l 1
 221 331 l 1
 214 334 l 1
 211 340 l 1
 213 348 l 1
 372 552 l 1
 138 552 l 1
 129 559 l 1
 129 594 l 1
 138 600 l 1
 445 599 l 1
 451 594 l 1
 450 584 l 1
 290 379 l 1
 307 379 l 1
 390 351 l 1
 451 289 l 1
 479 206 l 1
 479 176 l 1
 451 90 l 1
 390 28 l 1
 304 0 l 1
 218 1 l 1
 135 28 l 1
 101 61 l 1
 74 116 l 1
 73 124 l 1
 83 130 l 1
 114 130 l 1
 119 125 l 1
 139 86 l 1
104 100 m 1
 108 103 l 1
 104 110 l 1
 99 110 l 1
 104 100 l 1
388 572 m 1
 394 580 l 1
 148 580 l 1
 148 572 l 1
 388 572 l 1
419 580 m 1
 413 572 l 1
 421 580 l 1
 419 580 l 1
398 552 m 1
 263 379 l 1
 400 552 l 1
 398 552 l 1
247 359 m 1
 241 351 l 1
 249 359 l 1
 247 359 l 1
322 346 m 1
 328 351 l 1
 302 359 l 1
 275 359 l 1
 269 351 l 1
 304 351 l 1
 322 346 l 1
344 345 m 1
 363 332 l 1
 391 322 l 1
 381 333 l 1
 344 345 l 1
405 304 m 1
 418 295 l 1
 396 318 l 1
 405 304 l 1
423 291 m 1
 432 263 l 1
 445 243 l 1
 433 281 l 1
 423 291 l 1
446 222 m 1
 452 203 l 1
 452 176 l 1
 446 157 l 1
 451 152 l 1
 459 177 l 1
 459 202 l 1
 451 227 l 1
 446 222 l 1
202 33 m 1
 197 29 l 1
 222 20 l 1
 302 20 l 1
 328 29 l 1
 322 33 l 1
 304 28 l 1
 221 28 l 1
 202 33 l 1
161 47 m 1
 133 57 l 1
 143 46 l 1
 181 34 l 1
 161 47 l 1
123 72 m 1
 115 77 l 1
 129 60 l 1
 129 61 l 1
 123 72 l 1
344 34 m 1
 381 46 l 1
 391 57 l 1
 363 47 l 1
 344 34 l 1
396 61 m 1
 418 84 l 1
 405 75 l 1
 396 61 l 1
423 88 m 1
 433 98 l 1
 445 136 l 1
 432 116 l 1
 423 88 l 1
EndSplineSet
EndChar

StartChar: four
Encoding: 52 52 15
Width: 552
VWidth: 0
Flags: W
HStem: 0 20<368 375> 138 20<101 104 128 348 368 375 395 486> 166 20<147 348 368 375 395 486> 580 20G<377 391>
VStem: 348 20<20 138 158 166 186 475> 375 20<20 138 158 166 186 558> 486 20<158 166>
LayerCount: 2
Back
Fore
SplineSet
73 154 m 1
 377 596 l 1
 384 600 l 1
 391 598 l 1
 395 590 l 1
 395 186 l 1
 500 185 l 1
 506 176 l 1
 506 148 l 1
 503 141 l 1
 496 138 l 1
 395 138 l 1
 395 6 l 1
 385 0 l 1
 358 0 l 1
 351 3 l 1
 348 10 l 1
 348 138 l 1
 82 138 l 1
 73 143 l 1
 73 154 l 1
375 558 m 1
 120 186 l 1
 123 186 l 1
 350 513 l 1
 358 517 l 1
 365 514 l 1
 368 507 l 1
 368 186 l 1
 375 186 l 1
 375 558 l 1
106 166 m 1
 101 158 l 1
 104 158 l 1
 109 166 l 1
 106 166 l 1
348 475 m 1
 147 186 l 1
 348 186 l 1
 348 475 l 1
134 166 m 1
 128 158 l 1
 348 158 l 1
 348 166 l 1
 134 166 l 1
368 166 m 1
 368 158 l 1
 375 158 l 1
 375 166 l 1
 368 166 l 1
368 138 m 1
 368 20 l 1
 375 20 l 1
 375 138 l 1
 368 138 l 1
395 158 m 1
 486 158 l 1
 486 166 l 1
 395 166 l 1
 395 158 l 1
EndSplineSet
EndChar

StartChar: five
Encoding: 53 53 16
Width: 553
VWidth: 0
Flags: W
HStem: 1 19<222 302> 28 20<206.706 317.294> 110 20<99 104> 332 19<121 136> 359 20<200 304> 387 20<222 302> 552 18<174 404> 580 20<147 404>
VStem: 404 20<572 580> 432 20<177 229> 459 20<173 234>
LayerCount: 2
Back
Fore
SplineSet
100 343 m 1
 128 591 l 1
 132 598 l 1
 138 600 l 1
 414 600 l 1
 421 597 l 1
 424 590 l 1
 424 562 l 1
 421 555 l 1
 414 552 l 1
 174 552 l 1
 150 384 l 1
 221 407 l 1
 304 407 l 1
 394 376 l 1
 451 317 l 1
 479 234 l 1
 479 173 l 1
 449 86 l 1
 390 28 l 1
 307 1 l 1
 218 1 l 1
 131 31 l 1
 101 61 l 1
 74 116 l 1
 73 124 l 1
 79 130 l 1
 110 130 l 1
 117 128 l 1
 139 86 l 1
 170 65 l 1
 222 48 l 1
 302 48 l 1
 354 65 l 1
 390 89 l 1
 414 125 l 1
 432 177 l 1
 432 229 l 1
 414 282 l 1
 390 318 l 1
 354 342 l 1
 302 359 l 1
 196 359 l 1
 138 331 l 1
 106 332 l 1
 100 343 l 1
147 580 m 1
 121 351 l 1
 136 351 l 1
 173 370 l 1
 137 359 l 1
 130 362 l 1
 128 370 l 1
 156 564 l 1
 160 570 l 1
 404 572 l 1
 404 580 l 1
 147 580 l 1
322 373 m 1
 328 378 l 1
 302 387 l 1
 222 387 l 1
 200 379 l 1
 304 379 l 1
 322 373 l 1
344 373 m 1
 363 360 l 1
 391 350 l 1
 381 360 l 1
 344 373 l 1
405 332 m 1
 418 323 l 1
 396 346 l 1
 405 332 l 1
423 319 m 1
 432 291 l 1
 445 271 l 1
 433 308 l 1
 423 319 l 1
446 250 m 1
 452 231 l 1
 452 176 l 1
 446 157 l 1
 451 152 l 1
 459 177 l 1
 459 229 l 1
 451 255 l 1
 446 250 l 1
104 110 m 1
 99 110 l 1
 104 100 l 1
 108 103 l 1
 104 110 l 1
123 72 m 1
 115 77 l 1
 129 60 l 1
 129 61 l 1
 123 72 l 1
133 57 m 1
 143 46 l 1
 181 34 l 1
 161 47 l 1
 133 57 l 1
202 33 m 1
 197 29 l 1
 222 20 l 1
 302 20 l 1
 328 29 l 1
 322 33 l 1
 304 28 l 1
 221 28 l 1
 202 33 l 1
344 34 m 1
 381 46 l 1
 391 57 l 1
 363 47 l 1
 344 34 l 1
396 61 m 1
 418 84 l 1
 405 75 l 1
 396 61 l 1
423 88 m 1
 433 98 l 1
 445 136 l 1
 432 116 l 1
 423 88 l 1
EndSplineSet
EndChar

StartChar: six
Encoding: 54 54 17
Width: 553
VWidth: 0
Flags: W
HStem: 1 19<278 302> 28 20<199 211.519 262.412 317.294> 331 20<257 322> 359 20<273 324.75> 498 19<420 426> 552 20<256.682 330> 580 19<278 330>
VStem: 100 20<176.581 375.259> 128 20<265 282 310 370.222 446 476> 432 20<177 202> 459 20<173 206>
LayerCount: 2
Back
Fore
SplineSet
148 310 m 1
 190 351 l 1
 273 379 l 1
 304 379 l 1
 390 351 l 1
 449 293 l 1
 479 206 l 1
 479 173 l 1
 451 90 l 1
 394 31 l 1
 307 1 l 1
 273 1 l 1
 190 28 l 1
 131 86 l 1
 100 203 l 1
 100 341 l 1
 128 481 l 1
 187 570 l 1
 273 599 l 1
 331 600 l 1
 421 570 l 1
 451 512 l 1
 451 504 l 1
 446 498 l 1
 410 498 l 1
 405 503 l 1
 390 532 l 1
 330 552 l 1
 278 552 l 1
 211 530 l 1
 175 476 l 1
 148 340 l 1
 148 310 l 1
128 286 m 1
 128 343 l 1
 156 481 l 1
 186 528 l 1
 184 531 l 1
 147 476 l 1
 120 340 l 1
 120 205 l 1
 132 156 l 1
 139 158 l 1
 128 203 l 1
 128 286 l 1
378 557 m 1
 377 564 l 1
 330 580 l 1
 278 580 l 1
 231 564 l 1
 229 557 l 1
 276 572 l 1
 331 572 l 1
 378 557 l 1
401 556 m 1
 405 548 l 1
 411 546 l 1
 407 554 l 1
 401 556 l 1
416 525 m 1
 420 517 l 1
 426 517 l 1
 420 527 l 1
 416 525 l 1
204 556 m 1
 200 554 l 1
 194 546 l 1
 199 547 l 1
 204 556 l 1
175 304 m 1
 184 318 l 1
 161 295 l 1
 175 304 l 1
216 332 m 1
 236 345 l 1
 199 333 l 1
 188 322 l 1
 190 323 l 1
 216 332 l 1
257 346 m 1
 276 351 l 1
 304 351 l 1
 322 346 l 1
 328 351 l 1
 302 359 l 1
 278 359 l 1
 252 351 l 1
 257 346 l 1
344 345 m 1
 363 332 l 1
 391 322 l 1
 381 333 l 1
 344 345 l 1
405 304 m 1
 418 295 l 1
 396 318 l 1
 405 304 l 1
423 291 m 1
 432 263 l 1
 445 243 l 1
 433 281 l 1
 423 291 l 1
446 222 m 1
 452 203 l 1
 452 176 l 1
 446 157 l 1
 451 152 l 1
 459 177 l 1
 459 202 l 1
 451 227 l 1
 446 222 l 1
414 125 m 1
 432 177 l 1
 432 202 l 1
 414 254 l 1
 390 290 l 1
 354 314 l 1
 302 331 l 1
 278 331 l 1
 225 314 l 1
 189 290 l 1
 165 254 l 1
 148 203 l 1
 169 119 l 1
 189 89 l 1
 225 65 l 1
 278 48 l 1
 302 48 l 1
 354 65 l 1
 390 89 l 1
 414 125 l 1
257 33 m 1
 252 29 l 1
 278 20 l 1
 302 20 l 1
 328 29 l 1
 322 33 l 1
 304 28 l 1
 276 28 l 1
 257 33 l 1
216 47 m 1
 188 57 l 1
 199 46 l 1
 236 34 l 1
 216 47 l 1
175 75 m 1
 161 84 l 1
 184 61 l 1
 175 75 l 1
151 111 m 1
 140 128 l 1
 147 98 l 1
 157 88 l 1
 156 90 l 1
 151 111 l 1
344 34 m 1
 381 46 l 1
 391 57 l 1
 363 47 l 1
 344 34 l 1
396 61 m 1
 418 84 l 1
 405 75 l 1
 396 61 l 1
423 88 m 1
 433 98 l 1
 445 136 l 1
 432 116 l 1
 423 88 l 1
157 291 m 1
 148 282 l 1
 148 265 l 1
 156 289 l 1
 157 291 l 1
EndSplineSet
EndChar

StartChar: seven
Encoding: 55 55 18
Width: 552
VWidth: 0
Flags: W
HStem: 1 19<180 186> 552 20<92 412> 580 20<92 425 447 452>
VStem: 72 20<572 580>
LayerCount: 2
Back
Fore
SplineSet
72 590 m 1
 75 597 l 1
 82 600 l 1
 468 600 l 1
 478 594 l 1
 477 586 l 1
 201 6 l 1
 195 1 l 1
 161 1 l 1
 155 6 l 1
 155 14 l 1
 412 552 l 1
 82 552 l 1
 72 559 l 1
 72 590 l 1
92 580 m 1
 92 572 l 1
 421 572 l 1
 425 580 l 1
 92 580 l 1
447 580 m 1
 443 572 l 1
 448 570 l 1
 452 580 l 1
 447 580 l 1
434 552 m 1
 180 20 l 1
 186 20 l 1
 439 552 l 1
 434 552 l 1
EndSplineSet
EndChar

StartChar: eight
Encoding: 56 56 19
Width: 551
VWidth: 0
Flags: W
HStem: 0 20<221 329> 28 20<205.706 344.294> 552 20<221 329> 580 20<221 329>
VStem: 73 19<123 201> 99 20<123 201 454 505> 127 20<454 505> 403 20<454 505> 431 20<123 201 454 505> 458 20<123 201>
LayerCount: 2
Back
Fore
SplineSet
353 341 m 1
 393 321 l 1
 448 266 l 1
 477 208 l 1
 478 120 l 1
 450 61 l 1
 416 28 l 1
 330 0 l 1
 220 0 l 1
 130 31 l 1
 100 61 l 1
 73 116 l 1
 72 203 l 1
 102 266 l 1
 157 321 l 1
 197 341 l 1
 160 360 l 1
 130 390 l 1
 100 447 l 1
 100 512 l 1
 130 570 l 1
 220 600 l 1
 330 600 l 1
 420 570 l 1
 450 512 l 1
 450 447 l 1
 420 390 l 1
 390 360 l 1
 353 341 l 1
103 100 m 1
 107 103 l 1
 99 120 l 1
 99 203 l 1
 128 263 l 1
 118 253 l 1
 92 201 l 1
 92 123 l 1
 103 100 l 1
138 86 m 1
 169 65 l 1
 221 48 l 1
 329 48 l 1
 381 65 l 1
 412 86 l 1
 431 123 l 1
 431 201 l 1
 405 253 l 1
 380 278 l 1
 327 304 l 1
 275 317 l 1
 223 304 l 1
 170 278 l 1
 145 253 l 1
 119 201 l 1
 119 123 l 1
 138 86 l 1
316 328 m 1
 335 323 l 1
 390 295 l 1
 380 306 l 1
 329 331 l 1
 316 328 l 1
221 580 m 1
 174 564 l 1
 173 557 l 1
 220 572 l 1
 330 572 l 1
 377 557 l 1
 376 564 l 1
 329 580 l 1
 221 580 l 1
150 556 m 1
 144 554 l 1
 140 546 l 1
 146 548 l 1
 150 556 l 1
400 556 m 1
 404 548 l 1
 410 546 l 1
 406 554 l 1
 400 556 l 1
415 525 m 1
 423 507 l 1
 423 452 l 1
 394 392 l 1
 405 403 l 1
 431 454 l 1
 431 505 l 1
 419 527 l 1
 415 525 l 1
390 388 m 1
 335 360 l 1
 316 355 l 1
 329 352 l 1
 380 377 l 1
 390 388 l 1
275 366 m 1
 327 378 l 1
 378 404 l 1
 403 454 l 1
 403 505 l 1
 389 532 l 1
 329 552 l 1
 221 552 l 1
 161 532 l 1
 147 505 l 1
 147 454 l 1
 172 404 l 1
 223 378 l 1
 275 366 l 1
135 525 m 1
 131 527 l 1
 119 505 l 1
 119 454 l 1
 145 403 l 1
 156 392 l 1
 127 452 l 1
 127 507 l 1
 135 525 l 1
160 388 m 1
 170 377 l 1
 221 352 l 1
 234 355 l 1
 215 360 l 1
 160 388 l 1
275 345 m 1
 261 341 l 1
 275 338 l 1
 289 341 l 1
 275 345 l 1
221 331 m 1
 170 306 l 1
 160 295 l 1
 215 323 l 1
 234 328 l 1
 221 331 l 1
422 263 m 1
 451 203 l 1
 451 120 l 1
 443 103 l 1
 447 100 l 1
 458 123 l 1
 458 201 l 1
 432 253 l 1
 422 263 l 1
201 33 m 1
 196 29 l 1
 221 20 l 1
 329 20 l 1
 354 29 l 1
 349 33 l 1
 330 28 l 1
 220 28 l 1
 201 33 l 1
160 47 m 1
 132 57 l 1
 142 46 l 1
 180 34 l 1
 160 47 l 1
122 72 m 1
 114 77 l 1
 128 60 l 1
 128 61 l 1
 122 72 l 1
370 34 m 1
 408 46 l 1
 418 57 l 1
 390 47 l 1
 370 34 l 1
422 60 m 1
 432 71 l 1
 436 77 l 1
 428 72 l 1
 422 60 l 1
EndSplineSet
EndChar

StartChar: nine
Encoding: 57 57 20
Width: 553
VWidth: 0
Flags: W
HStem: 0 20<222 274> 28 20<222 295.318> 83 19<126 132> 221 20<227.25 279> 249 20<171 183.5 234.706 289.588> 552 20<230 295> 580 19<250 274>
VStem: 73 20<394 427> 100 20<398 423> 404 20<124 154 229.778 290 318 335> 432 20<224.741 423.419>
LayerCount: 2
Back
Fore
SplineSet
404 290 m 1
 362 249 l 1
 279 221 l 1
 248 221 l 1
 162 249 l 1
 103 307 l 1
 73 394 l 1
 73 427 l 1
 101 510 l 1
 158 569 l 1
 245 599 l 1
 279 599 l 1
 362 572 l 1
 421 514 l 1
 452 397 l 1
 452 259 l 1
 424 119 l 1
 365 30 l 1
 279 1 l 1
 221 0 l 1
 131 30 l 1
 101 88 l 1
 101 96 l 1
 106 102 l 1
 142 102 l 1
 147 97 l 1
 162 68 l 1
 222 48 l 1
 274 48 l 1
 341 70 l 1
 377 124 l 1
 404 260 l 1
 404 290 l 1
101 448 m 1
 93 423 l 1
 93 398 l 1
 101 373 l 1
 106 378 l 1
 100 397 l 1
 100 424 l 1
 106 443 l 1
 101 448 l 1
107 464 m 1
 120 484 l 1
 129 512 l 1
 119 502 l 1
 107 464 l 1
147 525 m 1
 156 539 l 1
 134 516 l 1
 147 525 l 1
189 553 m 1
 208 566 l 1
 171 554 l 1
 161 543 l 1
 162 544 l 1
 189 553 l 1
230 567 m 1
 248 572 l 1
 276 572 l 1
 295 567 l 1
 300 571 l 1
 274 580 l 1
 250 580 l 1
 224 571 l 1
 230 567 l 1
316 566 m 1
 336 553 l 1
 364 543 l 1
 353 554 l 1
 316 566 l 1
377 525 m 1
 391 516 l 1
 368 539 l 1
 377 525 l 1
395 512 m 1
 401 489 l 1
 412 472 l 1
 405 502 l 1
 395 512 l 1
413 442 m 1
 424 397 l 1
 424 257 l 1
 396 119 l 1
 366 72 l 1
 368 69 l 1
 405 124 l 1
 432 260 l 1
 432 395 l 1
 420 444 l 1
 413 442 l 1
383 481 m 1
 363 511 l 1
 327 535 l 1
 274 552 l 1
 250 552 l 1
 198 535 l 1
 162 511 l 1
 138 475 l 1
 120 423 l 1
 120 398 l 1
 138 346 l 1
 162 310 l 1
 198 286 l 1
 250 269 l 1
 274 269 l 1
 327 286 l 1
 363 310 l 1
 387 346 l 1
 404 397 l 1
 383 481 l 1
230 254 m 1
 224 249 l 1
 250 241 l 1
 274 241 l 1
 300 249 l 1
 295 254 l 1
 276 249 l 1
 248 249 l 1
 230 254 l 1
189 268 m 1
 161 278 l 1
 171 267 l 1
 208 255 l 1
 189 268 l 1
147 296 m 1
 134 305 l 1
 156 282 l 1
 147 296 l 1
120 337 m 1
 107 357 l 1
 119 319 l 1
 129 309 l 1
 128 311 l 1
 120 337 l 1
316 255 m 1
 353 267 l 1
 364 278 l 1
 336 268 l 1
 316 255 l 1
368 282 m 1
 391 305 l 1
 377 296 l 1
 368 282 l 1
395 309 m 1
 404 318 l 1
 404 335 l 1
 396 311 l 1
 395 309 l 1
136 75 m 1
 132 83 l 1
 126 83 l 1
 132 73 l 1
 136 75 l 1
141 54 m 1
 145 46 l 1
 151 44 l 1
 147 52 l 1
 141 54 l 1
174 43 m 1
 175 36 l 1
 222 20 l 1
 274 20 l 1
 321 36 l 1
 323 43 l 1
 276 28 l 1
 221 28 l 1
 174 43 l 1
348 44 m 1
 352 46 l 1
 358 54 l 1
 353 53 l 1
 348 44 l 1
EndSplineSet
EndChar

StartChar: colon
Encoding: 58 58 21
Width: 304
VWidth: 0
Flags: W
HStem: 1 19<142 161> 28 20<148 156> 55 19<148 156> 83 19<142 161> 305 19<142 161> 359 18<148 156> 387 19<142 161>
VStem: 101 19<42 61 346 365> 128 20<351 359> 183 19<42 61 346 365>
LayerCount: 2
Back
Fore
SplineSet
103 376 m 1
 134 406 l 1
 169 406 l 1
 202 373 l 1
 202 338 l 1
 169 305 l 1
 134 305 l 1
 101 338 l 1
 100 369 l 1
 103 376 l 1
142 387 m 1
 133 377 l 1
 171 377 l 1
 161 387 l 1
 142 387 l 1
148 359 m 1
 148 351 l 1
 156 351 l 1
 156 359 l 1
 148 359 l 1
128 369 m 1
 130 374 l 1
 120 365 l 1
 120 346 l 1
 130 336 l 1
 128 341 l 1
 128 369 l 1
133 333 m 1
 142 324 l 1
 161 324 l 1
 171 333 l 1
 138 331 l 1
 133 333 l 1
174 336 m 1
 183 346 l 1
 183 365 l 1
 174 374 l 1
 176 341 l 1
 174 336 l 1
103 72 m 1
 134 102 l 1
 169 102 l 1
 202 69 l 1
 202 34 l 1
 169 1 l 1
 134 1 l 1
 101 34 l 1
 100 65 l 1
 103 72 l 1
142 83 m 1
 133 74 l 1
 171 74 l 1
 161 83 l 1
 142 83 l 1
130 70 m 1
 120 61 l 1
 120 42 l 1
 130 33 l 1
 128 65 l 1
 130 70 l 1
148 55 m 1
 148 48 l 1
 156 48 l 1
 156 55 l 1
 148 55 l 1
133 29 m 1
 142 20 l 1
 161 20 l 1
 171 29 l 1
 138 28 l 1
 133 29 l 1
174 33 m 1
 183 42 l 1
 183 61 l 1
 174 70 l 1
 176 38 l 1
 174 33 l 1
EndSplineSet
EndChar

StartChar: semicolon
Encoding: 59 59 22
Width: 304
VWidth: 0
Flags: W
HStem: 1 19<142 161> 29 19<148 156> 55 20<148 156> 83 19<142 161> 305 19<142 161> 359 18<148 156> 387 19<142 161>
VStem: 100 20<42 61 346 365> 128 20<48 55 351 359> 156 18<48 55> 183 19<42 61 346 365>
LayerCount: 2
Back
Fore
SplineSet
103 376 m 1
 134 406 l 1
 169 406 l 1
 202 373 l 1
 202 338 l 1
 169 305 l 1
 134 305 l 1
 101 338 l 1
 100 369 l 1
 103 376 l 1
142 387 m 1
 133 377 l 1
 171 377 l 1
 161 387 l 1
 142 387 l 1
148 359 m 1
 148 351 l 1
 156 351 l 1
 156 359 l 1
 148 359 l 1
128 369 m 1
 130 374 l 1
 120 365 l 1
 120 346 l 1
 130 336 l 1
 128 341 l 1
 128 369 l 1
133 333 m 1
 142 324 l 1
 161 324 l 1
 171 333 l 1
 138 331 l 1
 133 333 l 1
174 336 m 1
 183 346 l 1
 183 365 l 1
 174 374 l 1
 176 341 l 1
 174 336 l 1
203 38 m 1
 202 -21 l 1
 174 -79 l 1
 115 -109 l 1
 104 -108 l 1
 100 -101 l 1
 103 -94 l 1
 157 -66 l 1
 171 -10 l 1
 161 0 l 1
 134 1 l 1
 103 31 l 1
 100 38 l 1
 100 65 l 1
 103 72 l 1
 134 102 l 1
 169 102 l 1
 202 69 l 1
 203 38 l 1
128 65 m 1
 130 70 l 1
 120 61 l 1
 120 42 l 1
 130 33 l 1
 128 38 l 1
 128 65 l 1
138 75 m 1
 171 74 l 1
 161 83 l 1
 142 83 l 1
 133 74 l 1
 138 75 l 1
174 70 m 1
 174 33 l 1
 183 42 l 1
 183 61 l 1
 174 70 l 1
171 29 m 1
 133 29 l 1
 142 20 l 1
 161 20 l 1
 171 29 l 1
148 55 m 1
 148 48 l 1
 156 48 l 1
 156 55 l 1
 148 55 l 1
EndSplineSet
EndChar

StartChar: equal
Encoding: 61 61 23
Width: 691
VWidth: 0
Flags: W
HStem: 138 20<120 570> 166 20<120 570> 359 20<120 570> 387 20<120 570>
VStem: 101 19<158 166 379 387> 570 20<158 166 379 387>
LayerCount: 2
Back
Fore
SplineSet
100 397 m 1
 103 404 l 1
 110 407 l 1
 580 407 l 1
 589 400 l 1
 590 369 l 1
 587 362 l 1
 580 359 l 1
 110 359 l 1
 101 365 l 1
 100 397 l 1
120 387 m 1
 120 379 l 1
 570 379 l 1
 570 387 l 1
 120 387 l 1
100 176 m 1
 103 183 l 1
 110 186 l 1
 580 186 l 1
 589 180 l 1
 590 148 l 1
 587 141 l 1
 580 138 l 1
 110 138 l 1
 101 144 l 1
 100 176 l 1
120 166 m 1
 120 158 l 1
 570 158 l 1
 570 166 l 1
 120 166 l 1
EndSplineSet
EndChar

StartChar: question
Encoding: 63 63 24
Width: 525
VWidth: 0
Flags: W
HStem: 1 19<253 272> 28 20<259 267> 55 19<259 267> 83 19<253 272> 193 20<259 267> 442 20<93 101> 552 20<203 323> 580 19<223 303>
VStem: 73 20<462 477> 101 20<462 477> 212 19<42 61> 239 20<213 279 300 307> 267 20<213 282> 294 19<42 61> 405 20<427 477> 432 20<427 477>
LayerCount: 2
Back
Fore
SplineSet
73 452 m 1
 74 484 l 1
 102 539 l 1
 131 569 l 1
 218 599 l 1
 304 600 l 1
 390 572 l 1
 422 542 l 1
 451 484 l 1
 452 424 l 1
 424 365 l 1
 394 334 l 1
 336 305 l 1
 287 288 l 1
 286 200 l 1
 277 193 l 1
 249 193 l 1
 242 196 l 1
 239 203 l 1
 240 318 l 1
 245 323 l 1
 328 351 l 1
 354 364 l 1
 385 387 l 1
 405 427 l 1
 405 477 l 1
 386 514 l 1
 355 535 l 1
 303 552 l 1
 223 552 l 1
 171 535 l 1
 139 514 l 1
 121 477 l 1
 121 452 l 1
 118 445 l 1
 111 442 l 1
 83 442 l 1
 76 445 l 1
 73 452 l 1
93 462 m 1
 101 462 l 1
 101 480 l 1
 109 497 l 1
 105 500 l 1
 93 477 l 1
 93 462 l 1
116 523 m 1
 124 528 l 1
 130 540 l 1
 119 529 l 1
 116 523 l 1
162 553 m 1
 181 566 l 1
 144 554 l 1
 133 543 l 1
 135 544 l 1
 162 553 l 1
203 567 m 1
 221 572 l 1
 304 572 l 1
 323 567 l 1
 328 571 l 1
 303 580 l 1
 223 580 l 1
 197 571 l 1
 203 567 l 1
344 566 m 1
 364 553 l 1
 392 543 l 1
 382 554 l 1
 344 566 l 1
402 528 m 1
 410 523 l 1
 396 540 l 1
 396 539 l 1
 402 528 l 1
421 500 m 1
 417 497 l 1
 425 480 l 1
 425 424 l 1
 417 406 l 1
 421 404 l 1
 432 427 l 1
 432 477 l 1
 421 500 l 1
401 374 m 1
 396 364 l 1
 409 380 l 1
 401 374 l 1
392 360 m 1
 365 347 l 1
 344 331 l 1
 381 350 l 1
 392 360 l 1
296 319 m 1
 286 316 l 1
 287 309 l 1
 295 312 l 1
 296 319 l 1
259 307 m 1
 259 300 l 1
 267 303 l 1
 267 309 l 1
 259 307 l 1
259 279 m 1
 259 213 l 1
 267 213 l 1
 267 282 l 1
 259 279 l 1
214 72 m 1
 245 102 l 1
 280 102 l 1
 313 69 l 1
 313 34 l 1
 280 1 l 1
 245 1 l 1
 212 34 l 1
 211 65 l 1
 214 72 l 1
253 83 m 1
 244 74 l 1
 282 74 l 1
 272 83 l 1
 253 83 l 1
241 70 m 1
 231 61 l 1
 231 42 l 1
 241 33 l 1
 239 65 l 1
 241 70 l 1
259 55 m 1
 259 48 l 1
 267 48 l 1
 267 55 l 1
 259 55 l 1
244 29 m 1
 253 20 l 1
 272 20 l 1
 282 29 l 1
 249 28 l 1
 244 29 l 1
285 33 m 1
 294 42 l 1
 294 61 l 1
 285 70 l 1
 287 38 l 1
 285 33 l 1
EndSplineSet
EndChar

StartChar: A
Encoding: 65 65 25
Width: 552
VWidth: 0
Flags: W
HStem: 0 20<70 76 476 482> 138 20<151 401> 166 20<162 390> 579 20G<267 285>
LayerCount: 2
Back
Fore
SplineSet
45 10 m 1
 267 594 l 1
 272 599 l 1
 280 599 l 1
 285 594 l 1
 506 14 l 1
 506 6 l 1
 497 0 l 1
 469 0 l 1
 462 3 l 1
 409 138 l 1
 143 138 l 1
 90 3 l 1
 83 0 l 1
 55 0 l 1
 48 3 l 1
 45 10 l 1
70 20 m 1
 76 20 l 1
 122 138 l 1
 115 138 l 1
 70 20 l 1
122 158 m 1
 130 158 l 1
 133 167 l 1
 128 174 l 1
 122 158 l 1
132 183 m 1
 140 186 l 1
 267 511 l 1
 276 517 l 1
 285 511 l 1
 412 186 l 1
 420 183 l 1
 276 562 l 1
 132 183 l 1
276 480 m 1
 162 186 l 1
 390 186 l 1
 276 480 l 1
154 166 m 1
 151 158 l 1
 401 158 l 1
 398 166 l 1
 154 166 l 1
419 167 m 1
 422 158 l 1
 430 158 l 1
 424 174 l 1
 419 167 l 1
482 20 m 1
 437 138 l 1
 430 138 l 1
 476 20 l 1
 482 20 l 1
EndSplineSet
EndChar

StartChar: B
Encoding: 66 66 26
Width: 552
VWidth: 0
Flags: W
HStem: 0 20<120 330> 28 20<148 331> 276 20<148 330> 304 20<148 330> 552 20<148 331> 580 20<120 330>
VStem: 101 19<20 580> 129 19<48 276 296 304 324 552> 432 20<123 201 399 477> 459 20<123 201 399 477>
LayerCount: 2
Back
Fore
SplineSet
100 590 m 1
 103 597 l 1
 110 600 l 1
 331 600 l 1
 417 572 l 1
 451 539 l 1
 479 480 l 1
 479 397 l 1
 449 334 l 1
 421 307 l 1
 404 300 l 1
 421 293 l 1
 449 266 l 1
 478 208 l 1
 479 120 l 1
 451 61 l 1
 417 28 l 1
 331 0 l 1
 110 0 l 1
 101 6 l 1
 100 590 l 1
120 580 m 1
 120 20 l 1
 330 20 l 1
 409 46 l 1
 419 57 l 1
 331 28 l 1
 138 28 l 1
 129 34 l 1
 129 566 l 1
 138 572 l 1
 331 572 l 1
 419 543 l 1
 409 554 l 1
 330 580 l 1
 120 580 l 1
373 311 m 1
 409 323 l 1
 419 333 l 1
 363 314 l 1
 373 311 l 1
423 337 m 1
 433 347 l 1
 459 399 l 1
 459 477 l 1
 433 529 l 1
 423 540 l 1
 452 480 l 1
 452 397 l 1
 423 337 l 1
148 324 m 1
 330 324 l 1
 407 350 l 1
 432 399 l 1
 432 477 l 1
 407 527 l 1
 330 552 l 1
 148 552 l 1
 148 324 l 1
148 304 m 1
 148 296 l 1
 330 296 l 1
 341 300 l 1
 330 304 l 1
 148 304 l 1
148 48 m 1
 330 48 l 1
 407 73 l 1
 432 123 l 1
 432 201 l 1
 407 250 l 1
 330 276 l 1
 148 276 l 1
 148 48 l 1
423 60 m 1
 433 71 l 1
 459 123 l 1
 459 201 l 1
 433 253 l 1
 423 263 l 1
 452 203 l 1
 452 120 l 1
 423 60 l 1
419 267 m 1
 409 277 l 1
 373 289 l 1
 363 286 l 1
 417 268 l 1
 419 267 l 1
EndSplineSet
EndChar

StartChar: C
Encoding: 67 67 27
Width: 580
VWidth: 0
Flags: W
HStem: 0 20<250 355> 28 20<250 355> 138 20<475 480> 442 20<475 480> 552 20<250 355> 580 19<250 355>
VStem: 72 20<233 367> 100 19<233 367>
LayerCount: 2
Back
Fore
SplineSet
496 442 m 1
 468 442 l 1
 462 445 l 1
 432 501 l 1
 407 527 l 1
 355 552 l 1
 250 552 l 1
 199 527 l 1
 146 447 l 1
 119 367 l 1
 119 233 l 1
 146 153 l 1
 199 73 l 1
 250 48 l 1
 355 48 l 1
 407 73 l 1
 432 99 l 1
 462 155 l 1
 468 158 l 1
 497 158 l 1
 503 155 l 1
 506 148 l 1
 475 86 l 1
 420 31 l 1
 362 1 l 1
 247 0 l 1
 185 31 l 1
 128 88 l 1
 100 145 l 1
 72 231 l 1
 72 372 l 1
 100 455 l 1
 130 514 l 1
 185 569 l 1
 243 599 l 1
 358 600 l 1
 420 569 l 1
 475 514 l 1
 505 456 l 1
 504 445 l 1
 496 442 l 1
183 539 m 1
 145 501 l 1
 119 448 l 1
 92 367 l 1
 92 233 l 1
 119 152 l 1
 145 99 l 1
 183 61 l 1
 129 143 l 1
 100 228 l 1
 99 369 l 1
 129 457 l 1
 183 539 l 1
187 543 m 1
 247 572 l 1
 358 572 l 1
 418 544 l 1
 407 554 l 1
 355 580 l 1
 250 580 l 1
 198 554 l 1
 187 543 l 1
450 512 m 1
 475 462 l 1
 480 462 l 1
 460 501 l 1
 450 512 l 1
480 138 m 1
 475 138 l 1
 450 88 l 1
 460 99 l 1
 480 138 l 1
418 56 m 1
 358 28 l 1
 247 28 l 1
 187 57 l 1
 198 46 l 1
 250 20 l 1
 355 20 l 1
 407 46 l 1
 418 56 l 1
EndSplineSet
EndChar

StartChar: D
Encoding: 68 68 28
Width: 581
VWidth: 0
Flags: W
HStem: 0 20<120 302> 28 20<148 302> 552 20<148 302> 580 20<120 302>
VStem: 101 19<20 580> 129 19<48 552> 459 20<233 367> 487 20<233 367>
LayerCount: 2
Back
Fore
SplineSet
100 590 m 1
 103 597 l 1
 110 600 l 1
 307 599 l 1
 390 572 l 1
 451 512 l 1
 479 455 l 1
 506 372 l 1
 507 231 l 1
 479 145 l 1
 451 88 l 1
 390 28 l 1
 304 0 l 1
 110 0 l 1
 101 6 l 1
 100 590 l 1
120 580 m 1
 120 20 l 1
 302 20 l 1
 381 46 l 1
 392 57 l 1
 304 28 l 1
 138 28 l 1
 129 34 l 1
 129 566 l 1
 138 572 l 1
 304 572 l 1
 392 543 l 1
 381 554 l 1
 302 580 l 1
 120 580 l 1
423 88 m 1
 433 99 l 1
 460 152 l 1
 487 233 l 1
 487 367 l 1
 460 448 l 1
 433 501 l 1
 423 512 l 1
 451 455 l 1
 479 372 l 1
 479 231 l 1
 451 145 l 1
 423 88 l 1
148 48 m 1
 302 48 l 1
 381 74 l 1
 406 99 l 1
 432 152 l 1
 459 233 l 1
 459 367 l 1
 432 448 l 1
 406 501 l 1
 381 526 l 1
 302 552 l 1
 148 552 l 1
 148 48 l 1
EndSplineSet
EndChar

StartChar: E
Encoding: 69 69 29
Width: 524
VWidth: 0
Flags: W
HStem: 0 20<120 431> 28 20<148 431> 276 20<148 293> 304 20<148 293> 552 20<148 431> 580 20<120 431>
VStem: 101 19<20 580> 128 20<48 276 296 304 324 552> 293 20<296 304> 431 20<20 28 572 580>
LayerCount: 2
Back
Fore
SplineSet
100 590 m 1
 103 597 l 1
 110 600 l 1
 441 600 l 1
 451 594 l 1
 451 559 l 1
 441 552 l 1
 148 552 l 1
 148 324 l 1
 307 323 l 1
 313 314 l 1
 313 286 l 1
 310 279 l 1
 303 276 l 1
 148 276 l 1
 148 48 l 1
 441 48 l 1
 448 45 l 1
 451 38 l 1
 451 10 l 1
 445 1 l 1
 110 0 l 1
 101 6 l 1
 100 590 l 1
120 580 m 1
 120 20 l 1
 431 20 l 1
 431 28 l 1
 138 28 l 1
 128 34 l 1
 128 562 l 1
 130 569 l 1
 138 572 l 1
 431 572 l 1
 431 580 l 1
 120 580 l 1
148 296 m 1
 293 296 l 1
 293 304 l 1
 148 304 l 1
 148 296 l 1
EndSplineSet
EndChar

StartChar: F
Encoding: 70 70 30
Width: 497
VWidth: 0
Flags: W
HStem: 1 19<120 128> 276 20<148 293> 304 20<148 293> 552 20<148 431> 580 20<120 431>
VStem: 100 20<20 580> 128 20<20 276 296 304 324 552> 293 20<296 304> 431 20<572 580>
LayerCount: 2
Back
Fore
SplineSet
100 590 m 1
 103 597 l 1
 110 600 l 1
 441 600 l 1
 448 597 l 1
 451 590 l 1
 451 559 l 1
 441 552 l 1
 148 552 l 1
 148 324 l 1
 307 323 l 1
 313 314 l 1
 313 286 l 1
 310 279 l 1
 303 276 l 1
 148 276 l 1
 148 10 l 1
 145 3 l 1
 138 0 l 1
 106 1 l 1
 100 10 l 1
 100 590 l 1
120 580 m 1
 120 20 l 1
 128 20 l 1
 128 566 l 1
 138 572 l 1
 431 572 l 1
 431 580 l 1
 120 580 l 1
148 296 m 1
 293 296 l 1
 293 304 l 1
 148 304 l 1
 148 296 l 1
EndSplineSet
EndChar

StartChar: G
Encoding: 71 71 31
Width: 580
VWidth: 0
Flags: W
HStem: 0 20<250 355> 28 20<250 355> 222 19<368 458> 249 20<368 486> 442 20<475 480> 552 20<250 355> 580 19<250 355>
VStem: 72 20<233 367> 100 19<233 367> 348 20<241 249> 458 20<150 221> 486 19<150 249>
LayerCount: 2
Back
Fore
SplineSet
496 442 m 1
 468 442 l 1
 462 445 l 1
 432 501 l 1
 407 527 l 1
 355 552 l 1
 250 552 l 1
 198 527 l 1
 173 501 l 1
 146 448 l 1
 119 367 l 1
 119 233 l 1
 146 152 l 1
 173 99 l 1
 198 73 l 1
 250 48 l 1
 355 48 l 1
 407 73 l 1
 432 99 l 1
 458 150 l 1
 458 221 l 1
 354 222 l 1
 348 231 l 1
 349 262 l 1
 358 269 l 1
 496 269 l 1
 503 266 l 1
 506 259 l 1
 505 144 l 1
 475 86 l 1
 418 29 l 1
 358 0 l 1
 247 0 l 1
 185 31 l 1
 128 88 l 1
 100 145 l 1
 72 231 l 1
 72 372 l 1
 100 455 l 1
 130 514 l 1
 185 569 l 1
 243 599 l 1
 358 600 l 1
 420 569 l 1
 475 514 l 1
 505 456 l 1
 504 445 l 1
 496 442 l 1
156 512 m 1
 145 501 l 1
 119 448 l 1
 92 367 l 1
 92 233 l 1
 119 152 l 1
 145 99 l 1
 156 88 l 1
 127 145 l 1
 100 228 l 1
 99 369 l 1
 127 455 l 1
 156 512 l 1
187 544 m 1
 247 572 l 1
 358 572 l 1
 418 544 l 1
 407 554 l 1
 355 580 l 1
 250 580 l 1
 198 554 l 1
 187 544 l 1
450 512 m 1
 475 462 l 1
 480 462 l 1
 460 501 l 1
 450 512 l 1
368 249 m 1
 368 241 l 1
 468 241 l 1
 478 235 l 1
 478 148 l 1
 450 88 l 1
 460 99 l 1
 486 150 l 1
 486 249 l 1
 368 249 l 1
418 56 m 1
 358 28 l 1
 247 28 l 1
 187 56 l 1
 198 46 l 1
 250 20 l 1
 355 20 l 1
 407 46 l 1
 418 56 l 1
EndSplineSet
EndChar

StartChar: H
Encoding: 72 72 32
Width: 607
VWidth: 0
Flags: W
HStem: 0 20<120 127 479 486> 276 20<147 459> 304 20<147 459> 580 20<120 127 479 486>
VStem: 100 20<20 580> 127 20<20 276 296 304 324 580> 459 20<20 276 296 304 324 580> 486 20<20 580>
LayerCount: 2
Back
Fore
SplineSet
100 590 m 1
 106 599 l 1
 137 600 l 1
 144 597 l 1
 147 590 l 1
 147 324 l 1
 459 324 l 1
 459 590 l 1
 462 597 l 1
 469 600 l 1
 496 600 l 1
 503 597 l 1
 506 590 l 1
 506 10 l 1
 503 3 l 1
 496 0 l 1
 469 0 l 1
 462 3 l 1
 459 10 l 1
 459 276 l 1
 147 276 l 1
 147 10 l 1
 144 3 l 1
 137 0 l 1
 110 0 l 1
 103 3 l 1
 100 10 l 1
 100 590 l 1
120 580 m 1
 120 20 l 1
 127 20 l 1
 127 580 l 1
 120 580 l 1
147 296 m 1
 459 296 l 1
 459 304 l 1
 147 304 l 1
 147 296 l 1
486 580 m 1
 479 580 l 1
 479 20 l 1
 486 20 l 1
 486 580 l 1
EndSplineSet
EndChar

StartChar: I
Encoding: 73 73 33
Width: 249
VWidth: 0
Flags: W
HStem: 1 19<120 128> 580 19<120 128>
VStem: 100 20<20 580> 128 20<20 580>
LayerCount: 2
Back
Fore
SplineSet
100 590 m 1
 106 599 l 1
 138 600 l 1
 145 597 l 1
 148 590 l 1
 148 10 l 1
 145 3 l 1
 138 0 l 1
 106 1 l 1
 100 10 l 1
 100 590 l 1
120 580 m 1
 120 20 l 1
 128 20 l 1
 128 580 l 1
 120 580 l 1
EndSplineSet
EndChar

StartChar: J
Encoding: 74 74 34
Width: 469
VWidth: 0
Flags: W
HStem: 1 19<195 245> 28 20<195 245> 138 20<96 102> 580 19<340 348>
VStem: 320 20<148 580> 348 20<150 580>
LayerCount: 2
Back
Fore
SplineSet
72 148 m 1
 75 155 l 1
 82 158 l 1
 110 158 l 1
 117 155 l 1
 145 72 l 1
 195 48 l 1
 245 48 l 1
 295 72 l 1
 320 150 l 1
 320 590 l 1
 327 599 l 1
 362 599 l 1
 368 590 l 1
 368 148 l 1
 338 58 l 1
 307 29 l 1
 252 1 l 1
 188 1 l 1
 133 29 l 1
 102 58 l 1
 72 148 l 1
96 138 m 1
 118 71 l 1
 129 60 l 1
 102 138 l 1
 96 138 l 1
340 580 m 1
 340 148 l 1
 311 60 l 1
 322 71 l 1
 348 150 l 1
 348 580 l 1
 340 580 l 1
308 57 m 1
 252 29 l 1
 192 28 l 1
 132 57 l 1
 143 46 l 1
 195 20 l 1
 245 20 l 1
 297 46 l 1
 308 57 l 1
EndSplineSet
EndChar

StartChar: K
Encoding: 75 75 35
Width: 581
VWidth: 0
Flags: W
HStem: 0 20<120 128> 580 20<120 128>
VStem: 100 20<20 580> 128 20<20 227 283 580>
LayerCount: 2
Back
Fore
SplineSet
100 590 m 1
 106 599 l 1
 138 600 l 1
 145 597 l 1
 148 590 l 1
 148 283 l 1
 462 597 l 1
 469 600 l 1
 497 600 l 1
 504 597 l 1
 507 590 l 1
 504 583 l 1
 262 340 l 1
 505 16 l 1
 507 9 l 1
 503 2 l 1
 469 0 l 1
 461 4 l 1
 232 310 l 1
 148 227 l 1
 147 6 l 1
 138 0 l 1
 110 0 l 1
 103 3 l 1
 100 10 l 1
 100 590 l 1
120 580 m 1
 120 20 l 1
 128 20 l 1
 128 580 l 1
 120 580 l 1
247 326 m 1
 246 325 l 1
 474 20 l 1
 477 20 l 1
 247 326 l 1
EndSplineSet
EndChar

StartChar: L
Encoding: 76 76 36
Width: 469
VWidth: 0
Flags: W
HStem: 0 20<120 431> 28 20<148 431> 580 19<120 128>
VStem: 101 19<20 580> 128 20<48 580> 431 20<20 28>
LayerCount: 2
Back
Fore
SplineSet
100 590 m 1
 106 599 l 1
 138 600 l 1
 145 597 l 1
 148 590 l 1
 148 48 l 1
 441 48 l 1
 448 45 l 1
 451 38 l 1
 451 10 l 1
 445 1 l 1
 110 0 l 1
 101 6 l 1
 100 590 l 1
120 580 m 1
 120 20 l 1
 431 20 l 1
 431 28 l 1
 138 28 l 1
 128 34 l 1
 128 580 l 1
 120 580 l 1
EndSplineSet
EndChar

StartChar: M
Encoding: 77 77 37
Width: 663
VWidth: 0
Flags: W
HStem: 0 20<120 128 534 542> 580 20G<103 119 543 559>
VStem: 100 20<20 543> 128 20<20 404> 514 20<20 404> 542 20<20 543>
LayerCount: 2
Back
Fore
SplineSet
100 10 m 1
 100 590 l 1
 103 597 l 1
 110 600 l 1
 119 594 l 1
 331 117 l 1
 543 594 l 1
 548 599 l 1
 559 597 l 1
 562 590 l 1
 562 10 l 1
 559 3 l 1
 552 0 l 1
 524 0 l 1
 517 3 l 1
 514 10 l 1
 514 404 l 1
 340 6 l 1
 331 0 l 1
 322 6 l 1
 148 404 l 1
 148 10 l 1
 141 1 l 1
 110 0 l 1
 103 3 l 1
 100 10 l 1
120 20 m 1
 128 20 l 1
 128 452 l 1
 130 459 l 1
 138 462 l 1
 147 456 l 1
 331 35 l 1
 515 456 l 1
 524 462 l 1
 531 459 l 1
 534 452 l 1
 534 20 l 1
 542 20 l 1
 542 543 l 1
 340 89 l 1
 331 83 l 1
 322 89 l 1
 120 543 l 1
 120 20 l 1
EndSplineSet
EndChar

StartChar: N
Encoding: 78 78 38
Width: 607
VWidth: 0
Flags: W
HStem: 0 20<120 127> 580 20<479 486>
VStem: 100 20<20 559> 127 20<20 476> 459 20<124 580> 486 19<41 580>
LayerCount: 2
Back
Fore
SplineSet
100 10 m 1
 101 595 l 1
 110 600 l 1
 118 596 l 1
 459 124 l 1
 459 590 l 1
 462 597 l 1
 469 600 l 1
 496 600 l 1
 503 597 l 1
 506 590 l 1
 505 5 l 1
 496 0 l 1
 488 4 l 1
 147 476 l 1
 147 10 l 1
 141 1 l 1
 110 0 l 1
 103 3 l 1
 100 10 l 1
120 20 m 1
 127 20 l 1
 127 507 l 1
 130 514 l 1
 137 517 l 1
 145 513 l 1
 486 41 l 1
 486 580 l 1
 479 580 l 1
 479 93 l 1
 476 86 l 1
 469 83 l 1
 461 87 l 1
 120 559 l 1
 120 20 l 1
EndSplineSet
EndChar

StartChar: O
Encoding: 79 79 39
Width: 609
VWidth: 0
Flags: W
HStem: 0 20<251 357> 28 20<278 330> 552 20<278 330> 580 20<251 357>
VStem: 74 19<233 367> 101 20<228 369> 487 20<231 372> 515 20<233 367>
LayerCount: 2
Back
Fore
SplineSet
248 600 m 1
 359 600 l 1
 422 569 l 1
 479 512 l 1
 507 455 l 1
 534 372 l 1
 535 231 l 1
 506 144 l 1
 477 86 l 1
 422 31 l 1
 359 0 l 1
 249 0 l 1
 186 31 l 1
 129 88 l 1
 101 145 l 1
 74 228 l 1
 73 369 l 1
 102 456 l 1
 131 514 l 1
 186 569 l 1
 248 600 l 1
184 539 m 1
 147 501 l 1
 120 448 l 1
 93 367 l 1
 93 233 l 1
 120 152 l 1
 147 99 l 1
 184 61 l 1
 130 143 l 1
 101 228 l 1
 101 369 l 1
 130 457 l 1
 184 539 l 1
189 543 m 1
 273 572 l 1
 332 572 l 1
 419 543 l 1
 409 554 l 1
 357 580 l 1
 251 580 l 1
 199 554 l 1
 189 543 l 1
278 552 m 1
 200 526 l 1
 147 447 l 1
 121 367 l 1
 121 233 l 1
 147 153 l 1
 200 74 l 1
 278 48 l 1
 330 48 l 1
 408 74 l 1
 461 153 l 1
 487 233 l 1
 487 367 l 1
 461 447 l 1
 408 526 l 1
 330 552 l 1
 278 552 l 1
424 539 m 1
 478 457 l 1
 507 372 l 1
 507 231 l 1
 478 143 l 1
 424 61 l 1
 461 99 l 1
 488 152 l 1
 515 233 l 1
 515 367 l 1
 488 448 l 1
 461 501 l 1
 424 539 l 1
419 57 m 1
 335 28 l 1
 276 28 l 1
 189 57 l 1
 199 46 l 1
 251 20 l 1
 357 20 l 1
 409 46 l 1
 419 57 l 1
EndSplineSet
EndChar

StartChar: P
Encoding: 80 80 40
Width: 552
VWidth: 0
Flags: W
HStem: 1 19<120 128> 276 20<148 356> 304 20<148 356> 552 20<148 356> 580 20<120 356>
VStem: 100 20<20 580> 128 20<20 276 296 304 324 552> 432 20<399 477> 459 19<399 477>
LayerCount: 2
Back
Fore
SplineSet
100 590 m 1
 103 597 l 1
 110 600 l 1
 363 599 l 1
 419 571 l 1
 449 542 l 1
 479 480 l 1
 478 392 l 1
 451 337 l 1
 419 305 l 1
 359 276 l 1
 148 276 l 1
 148 10 l 1
 145 3 l 1
 138 0 l 1
 106 1 l 1
 100 10 l 1
 100 590 l 1
120 580 m 1
 120 20 l 1
 128 20 l 1
 129 566 l 1
 138 572 l 1
 359 572 l 1
 419 544 l 1
 408 554 l 1
 356 580 l 1
 120 580 l 1
148 296 m 1
 356 296 l 1
 408 322 l 1
 419 333 l 1
 359 304 l 1
 148 304 l 1
 148 296 l 1
148 324 m 1
 356 324 l 1
 407 349 l 1
 432 399 l 1
 432 477 l 1
 407 527 l 1
 356 552 l 1
 148 552 l 1
 148 324 l 1
423 539 m 1
 452 480 l 1
 452 397 l 1
 423 337 l 1
 433 347 l 1
 459 399 l 1
 459 477 l 1
 433 529 l 1
 423 539 l 1
EndSplineSet
EndChar

StartChar: Q
Encoding: 81 81 41
Width: 609
VWidth: 0
Flags: W
HStem: 1 19<251 357> 28 20<278 351.875> 552 20<278 330> 580 20<251 357>
VStem: 73 20<233 367> 101 20<228 369> 487 20<231 372> 515 19<233 367>
LayerCount: 2
Back
Fore
SplineSet
248 600 m 1
 359 600 l 1
 419 571 l 1
 477 514 l 1
 507 455 l 1
 535 369 l 1
 534 228 l 1
 507 145 l 1
 479 88 l 1
 429 38 l 1
 504 -38 l 1
 507 -45 l 1
 501 -54 l 1
 466 -54 l 1
 394 16 l 1
 359 0 l 1
 244 1 l 1
 186 31 l 1
 131 86 l 1
 101 145 l 1
 73 231 l 1
 74 372 l 1
 101 455 l 1
 131 514 l 1
 186 569 l 1
 248 600 l 1
184 539 m 1
 147 501 l 1
 120 448 l 1
 93 367 l 1
 93 233 l 1
 120 152 l 1
 147 99 l 1
 184 61 l 1
 130 143 l 1
 101 228 l 1
 101 369 l 1
 130 457 l 1
 184 539 l 1
189 543 m 1
 273 572 l 1
 332 572 l 1
 419 543 l 1
 409 554 l 1
 357 580 l 1
 251 580 l 1
 199 554 l 1
 189 543 l 1
278 552 m 1
 200 526 l 1
 147 447 l 1
 121 367 l 1
 121 233 l 1
 147 153 l 1
 200 74 l 1
 278 48 l 1
 330 48 l 1
 355 56 l 1
 325 86 l 1
 322 93 l 1
 325 100 l 1
 332 103 l 1
 363 102 l 1
 396 70 l 1
 408 74 l 1
 461 153 l 1
 487 233 l 1
 487 367 l 1
 461 447 l 1
 408 526 l 1
 330 552 l 1
 278 552 l 1
412 54 m 1
 414 52 l 1
 419 57 l 1
 418 56 l 1
 412 54 l 1
424 61 m 1
 461 99 l 1
 488 152 l 1
 515 233 l 1
 515 367 l 1
 488 448 l 1
 461 501 l 1
 424 539 l 1
 478 457 l 1
 507 372 l 1
 507 231 l 1
 478 143 l 1
 424 61 l 1
370 40 m 1
 332 28 l 1
 276 28 l 1
 189 57 l 1
 199 46 l 1
 251 20 l 1
 357 20 l 1
 379 31 l 1
 370 40 l 1
EndSplineSet
EndChar

StartChar: R
Encoding: 82 82 42
Width: 552
VWidth: 0
Flags: W
HStem: 0 20<120 128 447 452> 276 20<148 270 294 298> 304 20<148 330> 552 20<148 331> 580 20<120 330>
VStem: 101 19<20 580> 128 20<20 276 296 304 324 552> 432 20<399 477> 459 19<399 477>
LayerCount: 2
Back
Fore
SplineSet
100 590 m 1
 103 597 l 1
 110 600 l 1
 331 600 l 1
 417 572 l 1
 451 539 l 1
 479 480 l 1
 478 392 l 1
 451 337 l 1
 421 307 l 1
 334 277 l 1
 321 276 l 1
 478 15 l 1
 479 8 l 1
 474 1 l 1
 442 0 l 1
 433 5 l 1
 270 276 l 1
 148 276 l 1
 148 10 l 1
 145 3 l 1
 138 0 l 1
 110 0 l 1
 101 6 l 1
 100 590 l 1
120 580 m 1
 120 20 l 1
 128 20 l 1
 129 566 l 1
 138 572 l 1
 331 572 l 1
 419 543 l 1
 409 554 l 1
 330 580 l 1
 120 580 l 1
148 296 m 1
 330 296 l 1
 409 323 l 1
 419 333 l 1
 331 304 l 1
 148 304 l 1
 148 296 l 1
148 324 m 1
 330 324 l 1
 407 350 l 1
 432 399 l 1
 432 477 l 1
 407 527 l 1
 330 552 l 1
 148 552 l 1
 148 324 l 1
423 540 m 1
 452 480 l 1
 452 397 l 1
 423 337 l 1
 433 347 l 1
 459 399 l 1
 459 477 l 1
 433 529 l 1
 423 540 l 1
294 276 m 1
 447 20 l 1
 452 20 l 1
 298 276 l 1
 294 276 l 1
EndSplineSet
EndChar

StartChar: S
Encoding: 83 83 43
Width: 551
VWidth: 0
Flags: W
HStem: 0 20<221 329> 28 20<222 329> 83 20<106 133> 498 19<417 444> 552 20<221 328> 580 20<221 329>
VStem: 72 20<454 503> 99 20<454 503> 431 18<97 173> 458 20<97 173>
LayerCount: 2
Back
Fore
SplineSet
72 93 m 1
 75 100 l 1
 82 103 l 1
 137 103 l 1
 144 100 l 1
 170 73 l 1
 222 48 l 1
 329 48 l 1
 408 74 l 1
 431 97 l 1
 431 173 l 1
 405 225 l 1
 380 250 l 1
 326 277 l 1
 188 332 l 1
 132 360 l 1
 100 392 l 1
 72 452 l 1
 72 511 l 1
 134 572 l 1
 220 600 l 1
 330 600 l 1
 420 569 l 1
 475 514 l 1
 478 507 l 1
 475 500 l 1
 468 497 l 1
 409 498 l 1
 380 527 l 1
 328 552 l 1
 221 552 l 1
 142 526 l 1
 119 503 l 1
 119 454 l 1
 144 404 l 1
 196 378 l 1
 334 323 l 1
 390 295 l 1
 448 238 l 1
 478 176 l 1
 478 93 l 1
 475 86 l 1
 416 28 l 1
 330 0 l 1
 220 0 l 1
 130 31 l 1
 75 86 l 1
 72 93 l 1
106 83 m 1
 142 46 l 1
 221 20 l 1
 329 20 l 1
 408 46 l 1
 418 57 l 1
 330 28 l 1
 220 28 l 1
 160 56 l 1
 133 83 l 1
 106 83 l 1
444 517 m 1
 408 554 l 1
 329 580 l 1
 221 580 l 1
 142 554 l 1
 132 543 l 1
 220 572 l 1
 330 572 l 1
 390 544 l 1
 417 517 l 1
 444 517 l 1
101 512 m 1
 92 503 l 1
 92 454 l 1
 118 403 l 1
 128 392 l 1
 99 452 l 1
 101 512 l 1
132 388 m 1
 143 377 l 1
 196 351 l 1
 334 295 l 1
 390 267 l 1
 380 278 l 1
 326 305 l 1
 188 360 l 1
 132 388 l 1
422 236 m 1
 451 176 l 1
 449 88 l 1
 458 97 l 1
 458 173 l 1
 432 225 l 1
 422 236 l 1
EndSplineSet
EndChar

StartChar: T
Encoding: 84 84 44
Width: 470
VWidth: 0
Flags: W
HStem: 1 19<231 239> 552 20<65 211 231 239 259 404> 580 20<65 404>
VStem: 45 20<572 580> 211 20<20 552> 239 20<20 552> 404 20<572 580>
LayerCount: 2
Back
Fore
SplineSet
45 590 m 1
 48 597 l 1
 55 600 l 1
 414 600 l 1
 424 594 l 1
 424 562 l 1
 418 553 l 1
 259 552 l 1
 259 10 l 1
 252 1 l 1
 217 1 l 1
 211 10 l 1
 211 552 l 1
 51 553 l 1
 45 562 l 1
 45 590 l 1
65 580 m 1
 65 572 l 1
 404 572 l 1
 404 580 l 1
 65 580 l 1
231 20 m 1
 239 20 l 1
 239 552 l 1
 231 552 l 1
 231 20 l 1
EndSplineSet
EndChar

StartChar: U
Encoding: 85 85 45
Width: 607
VWidth: 0
Flags: W
HStem: 1 19<277 329> 28 20<277 329> 580 20<120 127 479 486>
VStem: 100 20<177 580> 127 20<177 580> 459 20<177 580> 486 20<177 580>
LayerCount: 2
Back
Fore
SplineSet
100 590 m 1
 106 599 l 1
 137 600 l 1
 144 597 l 1
 147 590 l 1
 147 177 l 1
 174 98 l 1
 198 74 l 1
 277 48 l 1
 329 48 l 1
 408 74 l 1
 432 98 l 1
 459 177 l 1
 459 590 l 1
 462 597 l 1
 469 600 l 1
 496 600 l 1
 506 594 l 1
 506 176 l 1
 478 90 l 1
 417 28 l 1
 334 1 l 1
 272 1 l 1
 189 28 l 1
 128 90 l 1
 100 176 l 1
 100 590 l 1
120 580 m 1
 120 177 l 1
 146 98 l 1
 157 88 l 1
 127 176 l 1
 127 580 l 1
 120 580 l 1
187 57 m 1
 198 46 l 1
 277 20 l 1
 329 20 l 1
 408 46 l 1
 419 57 l 1
 334 28 l 1
 275 28 l 1
 187 57 l 1
449 88 m 1
 460 98 l 1
 486 177 l 1
 486 580 l 1
 479 580 l 1
 479 176 l 1
 449 88 l 1
EndSplineSet
EndChar

StartChar: V
Encoding: 86 86 46
Width: 552
VWidth: 0
Flags: W
HStem: 1 21G<267 285> 580 20<70 76 476 482>
LayerCount: 2
Back
Fore
SplineSet
45 590 m 1
 48 597 l 1
 55 600 l 1
 83 600 l 1
 92 594 l 1
 276 120 l 1
 460 594 l 1
 469 600 l 1
 497 600 l 1
 506 594 l 1
 506 586 l 1
 285 6 l 1
 280 1 l 1
 272 1 l 1
 267 6 l 1
 45 590 l 1
70 580 m 1
 276 38 l 1
 482 580 l 1
 476 580 l 1
 285 89 l 1
 276 83 l 1
 267 89 l 1
 76 580 l 1
 70 580 l 1
EndSplineSet
EndChar

StartChar: W
Encoding: 87 87 47
Width: 718
VWidth: 0
Flags: W
HStem: 0 21G<213 231 487 503> 580 20<68 75 643 650>
LayerCount: 2
Back
Fore
SplineSet
45 591 m 1
 48 597 l 1
 55 600 l 1
 83 600 l 1
 92 593 l 1
 221 130 l 1
 349 593 l 1
 356 600 l 1
 367 596 l 1
 497 130 l 1
 626 593 l 1
 635 600 l 1
 663 600 l 1
 670 597 l 1
 672 587 l 1
 503 2 l 1
 494 0 l 1
 487 7 l 1
 359 470 l 1
 231 7 l 1
 224 0 l 1
 213 4 l 1
 45 591 l 1
68 580 m 1
 221 47 l 1
 349 510 l 1
 354 516 l 1
 360 517 l 1
 369 510 l 1
 497 47 l 1
 650 580 l 1
 643 580 l 1
 505 87 l 1
 496 83 l 1
 487 90 l 1
 359 553 l 1
 231 90 l 1
 227 85 l 1
 220 83 l 1
 211 90 l 1
 75 580 l 1
 68 580 l 1
EndSplineSet
EndChar

StartChar: X
Encoding: 88 88 48
Width: 551
VWidth: 0
Flags: W
HStem: 0 20<100 104 446 450> 580 20<100 104 446 450>
LayerCount: 2
Back
Fore
SplineSet
72 589 m 1
 74 596 l 1
 80 600 l 1
 109 600 l 1
 118 595 l 1
 275 341 l 1
 432 595 l 1
 441 600 l 1
 470 600 l 1
 476 596 l 1
 477 585 l 1
 301 300 l 1
 477 15 l 1
 478 8 l 1
 474 1 l 1
 441 0 l 1
 432 5 l 1
 275 259 l 1
 118 5 l 1
 109 0 l 1
 80 0 l 1
 74 4 l 1
 73 15 l 1
 249 300 l 1
 72 589 l 1
450 580 m 1
 446 580 l 1
 287 322 l 1
 289 319 l 1
 450 580 l 1
275 303 m 1
 273 300 l 1
 275 297 l 1
 277 300 l 1
 275 303 l 1
263 322 m 1
 104 580 l 1
 100 580 l 1
 261 319 l 1
 263 322 l 1
261 281 m 1
 100 20 l 1
 104 20 l 1
 263 278 l 1
 261 281 l 1
287 278 m 1
 446 20 l 1
 450 20 l 1
 289 281 l 1
 287 278 l 1
EndSplineSet
EndChar

StartChar: Y
Encoding: 89 89 49
Width: 524
VWidth: 0
Flags: W
HStem: 1 19<258 266> 580 20<74 77 447 450>
VStem: 238 20<20 311> 266 20<20 311>
LayerCount: 2
Back
Fore
SplineSet
45 591 m 1
 48 597 l 1
 55 600 l 1
 82 600 l 1
 90 596 l 1
 262 351 l 1
 433 596 l 1
 441 600 l 1
 469 600 l 1
 478 594 l 1
 477 584 l 1
 286 311 l 1
 286 10 l 1
 279 1 l 1
 244 1 l 1
 238 10 l 1
 238 311 l 1
 46 584 l 1
 45 591 l 1
74 580 m 1
 248 331 l 1
 250 334 l 1
 77 580 l 1
 74 580 l 1
258 311 m 1
 258 20 l 1
 266 20 l 1
 266 311 l 1
 262 316 l 1
 258 311 l 1
274 334 m 1
 276 331 l 1
 450 580 l 1
 447 580 l 1
 274 334 l 1
EndSplineSet
EndChar

StartChar: Z
Encoding: 90 90 50
Width: 551
VWidth: 0
Flags: W
HStem: 0 20<100 104 127 458> 28 20<144 458> 552 20<92 406> 580 20<92 423 446 450>
VStem: 72 20<572 580> 458 20<20 28>
LayerCount: 2
Back
Fore
SplineSet
72 590 m 1
 75 597 l 1
 82 600 l 1
 468 600 l 1
 476 596 l 1
 477 585 l 1
 144 48 l 1
 468 48 l 1
 475 45 l 1
 478 38 l 1
 478 10 l 1
 475 3 l 1
 468 0 l 1
 82 0 l 1
 74 4 l 1
 73 15 l 1
 406 552 l 1
 82 552 l 1
 72 559 l 1
 72 590 l 1
92 580 m 1
 92 572 l 1
 418 572 l 1
 423 580 l 1
 92 580 l 1
446 580 m 1
 441 572 l 1
 445 571 l 1
 450 580 l 1
 446 580 l 1
429 552 m 1
 117 48 l 1
 121 48 l 1
 433 552 l 1
 429 552 l 1
100 20 m 1
 104 20 l 1
 109 28 l 1
 105 29 l 1
 100 20 l 1
132 28 m 1
 127 20 l 1
 458 20 l 1
 458 28 l 1
 132 28 l 1
EndSplineSet
EndChar

StartChar: a
Encoding: 97 97 51
Width: 553
VWidth: 0
Flags: W
HStem: 0 20<223 301 424 432> 28 20<223 301> 359 20<223 301> 387 20<223 301 424 432>
VStem: 73 20<177 229> 101 19<177 229> 404 20<20 69 99 308 338 387> 432 20<20 387>
LayerCount: 2
Back
Fore
SplineSet
404 338 m 1
 405 400 l 1
 414 407 l 1
 446 406 l 1
 452 397 l 1
 452 10 l 1
 449 3 l 1
 442 0 l 1
 414 0 l 1
 407 3 l 1
 404 10 l 1
 404 69 l 1
 363 29 l 1
 304 0 l 1
 221 0 l 1
 158 31 l 1
 101 90 l 1
 73 173 l 1
 73 234 l 1
 103 321 l 1
 158 376 l 1
 221 407 l 1
 308 406 l 1
 363 378 l 1
 404 338 l 1
130 88 m 1
 101 173 l 1
 100 231 l 1
 130 319 l 1
 119 308 l 1
 93 229 l 1
 93 177 l 1
 119 98 l 1
 130 88 l 1
161 350 m 1
 221 379 l 1
 304 379 l 1
 363 350 l 1
 353 361 l 1
 301 387 l 1
 223 387 l 1
 171 361 l 1
 161 350 l 1
424 387 m 1
 424 20 l 1
 432 20 l 1
 432 387 l 1
 424 387 l 1
404 308 m 1
 301 359 l 1
 223 359 l 1
 171 333 l 1
 147 308 l 1
 120 229 l 1
 120 177 l 1
 147 98 l 1
 171 73 l 1
 223 48 l 1
 301 48 l 1
 404 99 l 1
 404 308 l 1
363 56 m 1
 304 28 l 1
 221 28 l 1
 161 56 l 1
 171 46 l 1
 223 20 l 1
 301 20 l 1
 353 46 l 1
 363 56 l 1
EndSplineSet
EndChar

StartChar: b
Encoding: 98 98 52
Width: 552
VWidth: 0
Flags: W
HStem: 1 19<120 128 251 329> 28 20<251 329> 359 20<251 329> 387 19<251 329> 580 19<120 128>
VStem: 101 19<20 580> 128 20<20 69 99 308 338 580> 432 20<177 229> 459 20<177 229>
LayerCount: 2
Back
Fore
SplineSet
100 590 m 1
 106 599 l 1
 138 600 l 1
 145 597 l 1
 148 590 l 1
 148 338 l 1
 189 378 l 1
 244 406 l 1
 331 407 l 1
 394 376 l 1
 451 317 l 1
 479 234 l 1
 479 176 l 1
 451 90 l 1
 394 31 l 1
 336 1 l 1
 244 1 l 1
 189 29 l 1
 148 69 l 1
 148 10 l 1
 145 3 l 1
 138 0 l 1
 110 0 l 1
 101 6 l 1
 100 590 l 1
120 580 m 1
 120 20 l 1
 128 20 l 1
 128 580 l 1
 120 580 l 1
148 99 m 1
 251 48 l 1
 329 48 l 1
 381 73 l 1
 405 98 l 1
 432 177 l 1
 432 229 l 1
 405 308 l 1
 381 333 l 1
 329 359 l 1
 251 359 l 1
 148 308 l 1
 148 99 l 1
189 350 m 1
 248 379 l 1
 331 379 l 1
 391 350 l 1
 381 361 l 1
 329 387 l 1
 251 387 l 1
 199 361 l 1
 189 350 l 1
422 319 m 1
 451 234 l 1
 452 176 l 1
 422 88 l 1
 433 98 l 1
 459 177 l 1
 459 229 l 1
 433 308 l 1
 422 319 l 1
391 56 m 1
 331 28 l 1
 248 28 l 1
 189 56 l 1
 199 46 l 1
 251 20 l 1
 329 20 l 1
 381 46 l 1
 391 56 l 1
EndSplineSet
EndChar

StartChar: c
Encoding: 99 99 53
Width: 498
VWidth: 0
Flags: W
HStem: 0 20<223 301> 28 20<223 301> 359 20<223 301> 387 20<223 301>
VStem: 73 19<177 229> 100 20<177 229>
LayerCount: 2
Back
Fore
SplineSet
421 321 m 1
 424 314 l 1
 421 307 l 1
 393 279 l 1
 383 277 l 1
 377 282 l 1
 351 334 l 1
 301 359 l 1
 223 359 l 1
 171 333 l 1
 146 308 l 1
 120 229 l 1
 120 177 l 1
 146 98 l 1
 171 73 l 1
 223 48 l 1
 301 48 l 1
 351 73 l 1
 379 128 l 1
 386 130 l 1
 393 128 l 1
 421 100 l 1
 423 89 l 1
 366 31 l 1
 303 0 l 1
 220 0 l 1
 158 31 l 1
 103 86 l 1
 73 173 l 1
 73 234 l 1
 100 317 l 1
 158 376 l 1
 220 407 l 1
 303 407 l 1
 366 376 l 1
 421 321 l 1
129 319 m 1
 119 308 l 1
 92 229 l 1
 92 177 l 1
 119 98 l 1
 129 88 l 1
 100 173 l 1
 100 231 l 1
 129 319 l 1
160 350 m 1
 220 379 l 1
 303 379 l 1
 363 350 l 1
 353 361 l 1
 301 387 l 1
 223 387 l 1
 171 361 l 1
 160 350 l 1
367 346 m 1
 389 303 l 1
 400 314 l 1
 367 346 l 1
400 93 m 1
 389 104 l 1
 367 61 l 1
 400 93 l 1
363 56 m 1
 303 28 l 1
 220 28 l 1
 160 56 l 1
 171 46 l 1
 223 20 l 1
 301 20 l 1
 353 46 l 1
 363 56 l 1
EndSplineSet
EndChar

StartChar: d
Encoding: 100 100 54
Width: 553
VWidth: 0
Flags: W
HStem: 0 20<223 301 424 432> 28 20<223 301> 359 20<223 301> 387 20<223 301> 580 19<424 432>
VStem: 73 20<177 229> 101 19<177 229> 404 20<20 69 99 308 338 580> 432 19<20 580>
LayerCount: 2
Back
Fore
SplineSet
404 338 m 1
 404 590 l 1
 410 599 l 1
 442 600 l 1
 449 597 l 1
 452 590 l 1
 451 6 l 1
 442 0 l 1
 414 0 l 1
 407 3 l 1
 404 10 l 1
 404 69 l 1
 363 29 l 1
 304 0 l 1
 221 0 l 1
 158 31 l 1
 101 90 l 1
 73 173 l 1
 73 234 l 1
 103 321 l 1
 158 376 l 1
 221 407 l 1
 308 406 l 1
 363 378 l 1
 404 338 l 1
130 88 m 1
 101 173 l 1
 100 231 l 1
 130 319 l 1
 119 308 l 1
 93 229 l 1
 93 177 l 1
 119 98 l 1
 130 88 l 1
161 350 m 1
 221 379 l 1
 304 379 l 1
 363 350 l 1
 353 361 l 1
 301 387 l 1
 223 387 l 1
 171 361 l 1
 161 350 l 1
424 580 m 1
 424 20 l 1
 432 20 l 1
 432 580 l 1
 424 580 l 1
404 308 m 1
 301 359 l 1
 223 359 l 1
 171 333 l 1
 147 308 l 1
 120 229 l 1
 120 177 l 1
 147 98 l 1
 171 73 l 1
 223 48 l 1
 301 48 l 1
 404 99 l 1
 404 308 l 1
363 56 m 1
 304 28 l 1
 221 28 l 1
 161 56 l 1
 171 46 l 1
 223 20 l 1
 301 20 l 1
 353 46 l 1
 363 56 l 1
EndSplineSet
EndChar

StartChar: e
Encoding: 101 101 55
Width: 498
VWidth: 0
Flags: W
HStem: 0 20<223 301> 28 20<223 301> 193 20<120 404> 221 20<124 376> 359 20<223 301> 387 20<223 301>
VStem: 73 19<177 229> 100 20<177 193 213 221> 376 20<241 284> 404 20<213 284>
LayerCount: 2
Back
Fore
SplineSet
421 100 m 1
 424 93 l 1
 421 86 l 1
 366 31 l 1
 308 1 l 1
 220 0 l 1
 161 29 l 1
 100 90 l 1
 73 173 l 1
 73 234 l 1
 103 321 l 1
 158 376 l 1
 220 407 l 1
 303 407 l 1
 363 378 l 1
 395 346 l 1
 423 291 l 1
 424 203 l 1
 421 196 l 1
 414 193 l 1
 120 193 l 1
 120 177 l 1
 146 98 l 1
 171 73 l 1
 223 48 l 1
 301 48 l 1
 351 73 l 1
 377 125 l 1
 383 130 l 1
 393 128 l 1
 421 100 l 1
100 231 m 1
 129 319 l 1
 119 308 l 1
 92 229 l 1
 92 177 l 1
 119 98 l 1
 129 88 l 1
 100 173 l 1
 100 231 l 1
124 241 m 1
 376 241 l 1
 376 284 l 1
 351 334 l 1
 301 359 l 1
 223 359 l 1
 171 333 l 1
 146 308 l 1
 124 241 l 1
120 221 m 1
 120 213 l 1
 404 213 l 1
 404 284 l 1
 378 336 l 1
 367 346 l 1
 396 286 l 1
 396 231 l 1
 390 222 l 1
 120 221 l 1
160 350 m 1
 220 379 l 1
 303 379 l 1
 363 350 l 1
 353 361 l 1
 301 387 l 1
 223 387 l 1
 171 361 l 1
 160 350 l 1
160 56 m 1
 171 46 l 1
 223 20 l 1
 301 20 l 1
 353 46 l 1
 363 56 l 1
 303 28 l 1
 220 28 l 1
 160 56 l 1
367 61 m 1
 400 93 l 1
 389 104 l 1
 367 61 l 1
EndSplineSet
EndChar

StartChar: f
Encoding: 102 102 56
Width: 387
VWidth: 0
Flags: W
HStem: 1 19<176 184> 359 20<93 156 176 184 204 266> 387 20<93 156 176 184 204 266> 552 20<251 294> 580 20<251 294>
VStem: 73 20<379 387> 156 20<20 359 379 387 407 478> 184 20<20 359 379 387 407 499.35> 266 20<379 387> 294 20<572 580>
LayerCount: 2
Back
Fore
SplineSet
73 397 m 1
 76 404 l 1
 83 407 l 1
 156 407 l 1
 157 483 l 1
 186 569 l 1
 249 600 l 1
 304 600 l 1
 311 597 l 1
 314 590 l 1
 314 562 l 1
 311 555 l 1
 304 552 l 1
 251 552 l 1
 224 539 l 1
 204 478 l 1
 204 407 l 1
 280 406 l 1
 286 397 l 1
 286 369 l 1
 284 362 l 1
 276 359 l 1
 204 359 l 1
 204 10 l 1
 197 1 l 1
 162 1 l 1
 156 10 l 1
 156 359 l 1
 79 360 l 1
 73 369 l 1
 73 397 l 1
93 387 m 1
 93 379 l 1
 156 379 l 1
 156 387 l 1
 93 387 l 1
294 580 m 1
 251 580 l 1
 229 569 l 1
 231 565 l 1
 249 572 l 1
 294 572 l 1
 294 580 l 1
210 559 m 1
 202 555 l 1
 200 549 l 1
 208 553 l 1
 210 559 l 1
199 526 m 1
 192 525 l 1
 176 478 l 1
 176 407 l 1
 184 407 l 1
 184 480 l 1
 199 526 l 1
176 387 m 1
 176 379 l 1
 184 379 l 1
 184 387 l 1
 176 387 l 1
176 359 m 1
 176 20 l 1
 184 20 l 1
 184 359 l 1
 176 359 l 1
204 379 m 1
 266 379 l 1
 266 387 l 1
 204 387 l 1
 204 379 l 1
EndSplineSet
EndChar

StartChar: g
Encoding: 103 103 57
Width: 552
VWidth: 0
Flags: W
HStem: -193 20<222 300> -166 20<250 300> -110 20<133 160> 0 20<222 300> 28 20<222 300> 359 20<222 300> 387 19<222 300 423 431>
VStem: 72 20<177 229> 100 19<177 229> 403 20<-16 69 99 308 338 387> 431 20<-16 387>
LayerCount: 2
Back
Fore
SplineSet
99 -100 m 1
 102 -93 l 1
 109 -90 l 1
 168 -91 l 1
 198 -120 l 1
 250 -146 l 1
 300 -146 l 1
 352 -120 l 1
 377 -95 l 1
 403 -16 l 1
 403 69 l 1
 362 29 l 1
 307 1 l 1
 220 0 l 1
 157 31 l 1
 102 86 l 1
 72 173 l 1
 72 231 l 1
 102 321 l 1
 157 376 l 1
 215 406 l 1
 307 406 l 1
 362 378 l 1
 403 338 l 1
 403 397 l 1
 406 404 l 1
 413 407 l 1
 441 407 l 1
 448 404 l 1
 451 397 l 1
 451 -18 l 1
 420 -108 l 1
 365 -163 l 1
 307 -192 l 1
 220 -193 l 1
 157 -163 l 1
 102 -108 l 1
 99 -100 l 1
133 -110 m 1
 170 -147 l 1
 222 -173 l 1
 300 -173 l 1
 352 -147 l 1
 363 -137 l 1
 307 -165 l 1
 247 -166 l 1
 188 -137 l 1
 160 -110 l 1
 133 -110 l 1
423 93 m 1
 423 -18 l 1
 394 -106 l 1
 404 -95 l 1
 431 -16 l 1
 431 387 l 1
 423 387 l 1
 423 93 l 1
362 350 m 1
 352 361 l 1
 300 387 l 1
 222 387 l 1
 170 361 l 1
 160 350 l 1
 220 379 l 1
 303 379 l 1
 362 350 l 1
129 319 m 1
 118 308 l 1
 92 229 l 1
 92 177 l 1
 118 98 l 1
 129 88 l 1
 100 173 l 1
 99 231 l 1
 129 319 l 1
160 56 m 1
 170 46 l 1
 222 20 l 1
 300 20 l 1
 352 46 l 1
 362 56 l 1
 303 28 l 1
 220 28 l 1
 160 56 l 1
403 99 m 1
 403 308 l 1
 300 359 l 1
 222 359 l 1
 170 333 l 1
 146 308 l 1
 119 229 l 1
 119 177 l 1
 146 98 l 1
 170 73 l 1
 222 48 l 1
 300 48 l 1
 403 99 l 1
EndSplineSet
EndChar

StartChar: h
Encoding: 104 104 58
Width: 553
VWidth: 0
Flags: W
HStem: 0 20<120 128 424 432> 359 19<278 329> 387 19<278 356> 580 19<120 128>
VStem: 101 19<20 580> 128 20<20 281 310 580> 404 20<20 284> 432 20<20 285>
LayerCount: 2
Back
Fore
SplineSet
100 590 m 1
 106 599 l 1
 138 600 l 1
 145 597 l 1
 148 590 l 1
 148 310 l 1
 214 376 l 1
 272 406 l 1
 359 407 l 1
 422 376 l 1
 452 286 l 1
 452 10 l 1
 446 1 l 1
 410 1 l 1
 404 10 l 1
 404 284 l 1
 379 334 l 1
 329 359 l 1
 278 359 l 1
 226 333 l 1
 148 281 l 1
 148 10 l 1
 145 3 l 1
 138 0 l 1
 110 0 l 1
 101 6 l 1
 100 590 l 1
120 580 m 1
 120 20 l 1
 128 20 l 1
 128 580 l 1
 120 580 l 1
216 350 m 1
 272 378 l 1
 331 379 l 1
 395 346 l 1
 424 286 l 1
 424 20 l 1
 432 20 l 1
 432 285 l 1
 406 362 l 1
 356 387 l 1
 278 387 l 1
 227 361 l 1
 216 350 l 1
EndSplineSet
EndChar

StartChar: i
Encoding: 105 105 59
Width: 248
VWidth: 0
Flags: W
HStem: 1 19<120 128> 387 19<120 128> 498 19<114 133> 525 20<120 128> 552 19<120 128> 580 19<114 133>
VStem: 73 19<539 558> 100 20<20 387 545 552> 128 20<20 387> 155 19<539 558>
LayerCount: 2
Back
Fore
SplineSet
75 569 m 1
 106 599 l 1
 141 599 l 1
 174 566 l 1
 174 531 l 1
 141 498 l 1
 106 498 l 1
 73 531 l 1
 72 562 l 1
 75 569 l 1
114 580 m 1
 105 571 l 1
 143 571 l 1
 133 580 l 1
 114 580 l 1
120 552 m 1
 120 545 l 1
 128 545 l 1
 128 552 l 1
 120 552 l 1
100 562 m 1
 102 567 l 1
 92 558 l 1
 92 539 l 1
 102 530 l 1
 100 535 l 1
 100 562 l 1
105 526 m 1
 114 517 l 1
 133 517 l 1
 143 526 l 1
 110 525 l 1
 105 526 l 1
146 530 m 1
 155 539 l 1
 155 558 l 1
 146 567 l 1
 148 535 l 1
 146 530 l 1
100 397 m 1
 106 406 l 1
 138 407 l 1
 145 404 l 1
 148 397 l 1
 148 10 l 1
 145 3 l 1
 138 0 l 1
 106 1 l 1
 100 10 l 1
 100 397 l 1
120 387 m 1
 120 20 l 1
 128 20 l 1
 128 387 l 1
 120 387 l 1
EndSplineSet
EndChar

StartChar: j
Encoding: 106 106 60
Width: 248
VWidth: 0
Flags: W
HStem: -193 20<120 128> 387 19<120 128> 498 19<114 133> 525 20<120 128> 552 19<120 128> 580 19<114 133>
VStem: 73 19<539 558> 100 20<-173 387 545 552> 128 20<-173 387> 155 19<539 558>
LayerCount: 2
Back
Fore
SplineSet
75 569 m 1
 106 599 l 1
 141 599 l 1
 174 566 l 1
 174 531 l 1
 141 498 l 1
 106 498 l 1
 73 531 l 1
 72 562 l 1
 75 569 l 1
114 580 m 1
 105 571 l 1
 143 571 l 1
 133 580 l 1
 114 580 l 1
120 552 m 1
 120 545 l 1
 128 545 l 1
 128 552 l 1
 120 552 l 1
100 562 m 1
 102 567 l 1
 92 558 l 1
 92 539 l 1
 102 530 l 1
 100 535 l 1
 100 562 l 1
105 526 m 1
 114 517 l 1
 133 517 l 1
 143 526 l 1
 110 525 l 1
 105 526 l 1
146 530 m 1
 155 539 l 1
 155 558 l 1
 146 567 l 1
 148 535 l 1
 146 530 l 1
100 397 m 1
 106 406 l 1
 138 407 l 1
 145 404 l 1
 148 397 l 1
 148 -183 l 1
 145 -190 l 1
 138 -193 l 1
 106 -193 l 1
 100 -183 l 1
 100 397 l 1
120 387 m 1
 120 -173 l 1
 128 -173 l 1
 128 387 l 1
 120 387 l 1
EndSplineSet
EndChar

StartChar: k
Encoding: 107 107 61
Width: 526
VWidth: 0
Flags: W
HStem: 0 20<120 128 391 420> 387 20G<407 451> 580 19<120 128>
VStem: 101 19<20 580> 128 20<20 89 145 580>
LayerCount: 2
Back
Fore
SplineSet
100 590 m 1
 106 599 l 1
 138 600 l 1
 145 597 l 1
 148 590 l 1
 148 145 l 1
 407 404 l 1
 414 407 l 1
 442 407 l 1
 451 400 l 1
 449 390 l 1
 275 216 l 1
 449 17 l 1
 451 6 l 1
 446 1 l 1
 386 0 l 1
 379 3 l 1
 233 174 l 1
 148 89 l 1
 148 10 l 1
 145 3 l 1
 138 0 l 1
 110 0 l 1
 101 6 l 1
 100 590 l 1
120 580 m 1
 120 20 l 1
 128 20 l 1
 128 580 l 1
 120 580 l 1
261 202 m 1
 247 188 l 1
 391 20 l 1
 420 20 l 1
 261 202 l 1
EndSplineSet
EndChar

StartChar: l
Encoding: 108 108 62
Width: 249
VWidth: 0
Flags: W
HStem: 1 19<120 128> 580 19<120 128>
VStem: 100 20<20 580> 128 20<20 580>
LayerCount: 2
Back
Fore
SplineSet
100 590 m 1
 106 599 l 1
 138 600 l 1
 145 597 l 1
 148 590 l 1
 148 10 l 1
 145 3 l 1
 138 0 l 1
 106 1 l 1
 100 10 l 1
 100 590 l 1
120 580 m 1
 120 20 l 1
 128 20 l 1
 128 580 l 1
 120 580 l 1
EndSplineSet
EndChar

StartChar: m
Encoding: 109 109 63
Width: 856
VWidth: 0
Flags: W
HStem: 1 19<120 128 424 432 728 735> 359 19<278 329 582 633> 387 20<120 128 278 356 582 660>
VStem: 100 20<20 387> 128 20<20 281 310 387> 404 20<20 284> 432 20<20 281> 709 19<20 284 352.889 362> 735 20<20 306.56>
LayerCount: 2
Back
Fore
SplineSet
100 397 m 1
 103 404 l 1
 110 407 l 1
 138 407 l 1
 147 400 l 1
 148 310 l 1
 214 376 l 1
 276 407 l 1
 359 407 l 1
 418 378 l 1
 423 372 l 1
 446 305 l 1
 517 376 l 1
 575 406 l 1
 663 407 l 1
 722 378 l 1
 727 372 l 1
 755 286 l 1
 755 6 l 1
 745 0 l 1
 718 0 l 1
 709 6 l 1
 708 284 l 1
 683 334 l 1
 633 359 l 1
 582 359 l 1
 530 333 l 1
 452 281 l 1
 452 10 l 1
 445 1 l 1
 414 0 l 1
 407 3 l 1
 404 10 l 1
 404 284 l 1
 379 334 l 1
 329 359 l 1
 278 359 l 1
 226 333 l 1
 148 281 l 1
 148 10 l 1
 142 1 l 1
 106 1 l 1
 100 10 l 1
 100 397 l 1
120 387 m 1
 120 20 l 1
 128 20 l 1
 128 387 l 1
 120 387 l 1
216 350 m 1
 271 378 l 1
 331 379 l 1
 395 346 l 1
 424 286 l 1
 424 20 l 1
 432 20 l 1
 432 285 l 1
 406 362 l 1
 356 387 l 1
 278 387 l 1
 227 361 l 1
 216 350 l 1
520 350 m 1
 575 378 l 1
 635 379 l 1
 699 346 l 1
 728 286 l 1
 728 20 l 1
 735 20 l 1
 735 285 l 1
 710 362 l 1
 660 387 l 1
 582 387 l 1
 530 361 l 1
 520 350 l 1
EndSplineSet
EndChar

StartChar: n
Encoding: 110 110 64
Width: 553
VWidth: 0
Flags: W
HStem: 0 20<120 128 424 432> 359 19<278 329> 387 20<120 128 278 356>
VStem: 100 20<20 387> 128 20<20 281 310 387> 404 20<20 284> 432 20<20 285>
LayerCount: 2
Back
Fore
SplineSet
100 397 m 1
 103 404 l 1
 110 407 l 1
 138 407 l 1
 147 400 l 1
 148 310 l 1
 214 376 l 1
 272 406 l 1
 359 407 l 1
 422 376 l 1
 452 286 l 1
 452 10 l 1
 449 3 l 1
 442 0 l 1
 414 0 l 1
 407 3 l 1
 404 10 l 1
 404 284 l 1
 379 334 l 1
 329 359 l 1
 278 359 l 1
 226 333 l 1
 148 281 l 1
 148 10 l 1
 145 3 l 1
 138 0 l 1
 110 0 l 1
 103 3 l 1
 100 10 l 1
 100 397 l 1
120 387 m 1
 120 20 l 1
 128 20 l 1
 128 387 l 1
 120 387 l 1
216 350 m 1
 272 378 l 1
 331 379 l 1
 395 346 l 1
 424 286 l 1
 424 20 l 1
 432 20 l 1
 432 285 l 1
 406 362 l 1
 356 387 l 1
 278 387 l 1
 227 361 l 1
 216 350 l 1
EndSplineSet
EndChar

StartChar: o
Encoding: 111 111 65
Width: 525
VWidth: 0
Flags: W
HStem: 0 20<223 301> 28 20<223 301> 359 20<223 301> 387 20<223 301>
VStem: 73 19<177 229> 100 20<177 229> 404 20<177 229> 431 20<177 229>
LayerCount: 2
Back
Fore
SplineSet
220 407 m 1
 303 407 l 1
 366 376 l 1
 423 317 l 1
 451 234 l 1
 451 173 l 1
 421 86 l 1
 366 31 l 1
 303 0 l 1
 220 0 l 1
 158 31 l 1
 100 90 l 1
 73 173 l 1
 73 234 l 1
 103 321 l 1
 158 376 l 1
 220 407 l 1
129 319 m 1
 119 308 l 1
 92 229 l 1
 92 177 l 1
 119 98 l 1
 129 88 l 1
 100 173 l 1
 100 231 l 1
 129 319 l 1
160 350 m 1
 220 379 l 1
 303 379 l 1
 363 350 l 1
 353 361 l 1
 301 387 l 1
 223 387 l 1
 171 361 l 1
 160 350 l 1
394 319 m 1
 423 234 l 1
 424 176 l 1
 394 88 l 1
 405 98 l 1
 431 177 l 1
 431 229 l 1
 405 308 l 1
 394 319 l 1
363 56 m 1
 303 28 l 1
 220 28 l 1
 160 56 l 1
 171 46 l 1
 223 20 l 1
 301 20 l 1
 353 46 l 1
 363 56 l 1
223 359 m 1
 171 333 l 1
 146 308 l 1
 120 229 l 1
 120 177 l 1
 146 98 l 1
 171 73 l 1
 223 48 l 1
 301 48 l 1
 353 73 l 1
 377 98 l 1
 404 177 l 1
 404 229 l 1
 377 308 l 1
 353 333 l 1
 301 359 l 1
 223 359 l 1
EndSplineSet
EndChar

StartChar: p
Encoding: 112 112 66
Width: 552
VWidth: 0
Flags: W
HStem: -193 20<120 128> 1 19<251 329> 28 20<251 329> 359 20<251 329> 387 19<120 128 251 329>
VStem: 100 20<-173 387> 128 20<-173 69 99 308 338 387> 432 20<177 229> 459 20<177 229>
LayerCount: 2
Back
Fore
SplineSet
100 397 m 1
 103 404 l 1
 110 407 l 1
 138 407 l 1
 145 404 l 1
 148 397 l 1
 148 338 l 1
 189 378 l 1
 244 406 l 1
 336 406 l 1
 394 376 l 1
 449 321 l 1
 479 231 l 1
 479 173 l 1
 449 86 l 1
 394 31 l 1
 336 1 l 1
 244 1 l 1
 189 29 l 1
 148 69 l 1
 148 -183 l 1
 145 -190 l 1
 138 -193 l 1
 106 -193 l 1
 100 -183 l 1
 100 397 l 1
120 387 m 1
 120 -173 l 1
 128 -173 l 1
 128 387 l 1
 120 387 l 1
148 99 m 1
 251 48 l 1
 329 48 l 1
 381 73 l 1
 405 98 l 1
 432 177 l 1
 432 229 l 1
 405 308 l 1
 381 333 l 1
 329 359 l 1
 251 359 l 1
 148 308 l 1
 148 99 l 1
189 350 m 1
 248 379 l 1
 331 379 l 1
 391 350 l 1
 381 361 l 1
 329 387 l 1
 251 387 l 1
 199 361 l 1
 189 350 l 1
422 319 m 1
 451 234 l 1
 452 176 l 1
 422 88 l 1
 433 98 l 1
 459 177 l 1
 459 229 l 1
 433 308 l 1
 422 319 l 1
391 56 m 1
 331 28 l 1
 248 28 l 1
 189 56 l 1
 199 46 l 1
 251 20 l 1
 329 20 l 1
 381 46 l 1
 391 56 l 1
EndSplineSet
EndChar

StartChar: q
Encoding: 113 113 67
Width: 552
VWidth: 0
Flags: W
HStem: -193 20<423 431> 1 19<222 300> 28 20<222 300> 359 20<222 300> 387 19<222 300 423 431>
VStem: 72 20<177 229> 100 19<177 229> 403 20<-173 69 99 308 338 387> 431 20<-173 387>
LayerCount: 2
Back
Fore
SplineSet
403 338 m 1
 404 400 l 1
 413 407 l 1
 445 406 l 1
 451 397 l 1
 451 -183 l 1
 448 -190 l 1
 441 -193 l 1
 409 -193 l 1
 403 -183 l 1
 403 69 l 1
 362 29 l 1
 307 1 l 1
 215 1 l 1
 157 31 l 1
 102 86 l 1
 72 176 l 1
 72 234 l 1
 102 321 l 1
 157 376 l 1
 215 406 l 1
 307 406 l 1
 362 378 l 1
 403 338 l 1
129 88 m 1
 100 173 l 1
 99 231 l 1
 129 319 l 1
 118 308 l 1
 92 229 l 1
 92 177 l 1
 118 98 l 1
 129 88 l 1
160 350 m 1
 220 379 l 1
 303 379 l 1
 362 350 l 1
 352 361 l 1
 300 387 l 1
 222 387 l 1
 170 361 l 1
 160 350 l 1
423 387 m 1
 423 -173 l 1
 431 -173 l 1
 431 387 l 1
 423 387 l 1
403 308 m 1
 300 359 l 1
 222 359 l 1
 170 333 l 1
 146 308 l 1
 119 229 l 1
 119 177 l 1
 146 98 l 1
 170 73 l 1
 222 48 l 1
 300 48 l 1
 403 99 l 1
 403 308 l 1
362 56 m 1
 303 28 l 1
 220 28 l 1
 160 56 l 1
 170 46 l 1
 222 20 l 1
 300 20 l 1
 352 46 l 1
 362 56 l 1
EndSplineSet
EndChar

StartChar: r
Encoding: 114 114 68
Width: 387
VWidth: 0
Flags: W
HStem: 1 19<120 128> 359 19<278 349> 387 20<120 128 278 349>
VStem: 100 20<20 387> 128 20<20 229 293 387> 349 20<379 387>
LayerCount: 2
Back
Fore
SplineSet
100 397 m 1
 103 404 l 1
 110 407 l 1
 138 407 l 1
 147 400 l 1
 148 293 l 1
 158 321 l 1
 214 376 l 1
 271 406 l 1
 359 407 l 1
 366 404 l 1
 369 397 l 1
 369 369 l 1
 363 360 l 1
 278 359 l 1
 227 333 l 1
 174 280 l 1
 148 229 l 1
 148 10 l 1
 145 3 l 1
 138 0 l 1
 106 1 l 1
 100 10 l 1
 100 397 l 1
120 387 m 1
 120 20 l 1
 128 20 l 1
 128 387 l 1
 120 387 l 1
216 350 m 1
 271 378 l 1
 349 379 l 1
 349 387 l 1
 278 387 l 1
 227 361 l 1
 216 350 l 1
EndSplineSet
EndChar

StartChar: s
Encoding: 115 115 69
Width: 470
VWidth: 0
Flags: W
HStem: 1 19<194 274> 28 20<172.65 274> 83 19<98 103> 304 20<364 370> 359 20<172.65 274> 387 19<194 274>
VStem: 348 20<95 118> 376 19<95 118>
LayerCount: 2
Back
Fore
SplineSet
72 93 m 1
 74 99 l 1
 81 103 l 1
 113 102 l 1
 118 97 l 1
 133 68 l 1
 194 48 l 1
 274 48 l 1
 334 68 l 1
 348 95 l 1
 348 118 l 1
 332 150 l 1
 299 167 l 1
 161 222 l 1
 105 250 l 1
 72 314 l 1
 103 377 l 1
 189 406 l 1
 278 406 l 1
 365 377 l 1
 395 318 l 1
 395 310 l 1
 390 305 l 1
 354 304 l 1
 349 309 l 1
 334 339 l 1
 274 359 l 1
 194 359 l 1
 133 339 l 1
 121 314 l 1
 135 284 l 1
 169 268 l 1
 307 213 l 1
 365 183 l 1
 395 125 l 1
 396 93 l 1
 365 30 l 1
 278 1 l 1
 189 1 l 1
 103 30 l 1
 72 93 l 1
107 75 m 1
 103 83 l 1
 98 83 l 1
 103 73 l 1
 107 75 l 1
322 364 m 1
 321 371 l 1
 274 387 l 1
 194 387 l 1
 147 371 l 1
 146 364 l 1
 192 379 l 1
 275 379 l 1
 322 364 l 1
345 363 m 1
 349 355 l 1
 355 353 l 1
 351 361 l 1
 345 363 l 1
360 332 m 1
 364 324 l 1
 370 324 l 1
 364 334 l 1
 360 332 l 1
321 178 m 1
 323 182 l 1
 299 194 l 1
 147 256 l 1
 145 252 l 1
 169 240 l 1
 321 178 l 1
344 172 m 1
 347 165 l 1
 354 161 l 1
 351 168 l 1
 344 172 l 1
360 138 m 1
 368 120 l 1
 368 93 l 1
 360 75 l 1
 364 73 l 1
 376 95 l 1
 376 118 l 1
 365 140 l 1
 360 138 l 1
322 43 m 1
 275 28 l 1
 192 28 l 1
 146 43 l 1
 147 36 l 1
 194 20 l 1
 274 20 l 1
 321 36 l 1
 322 43 l 1
349 52 m 1
 345 44 l 1
 351 46 l 1
 355 54 l 1
 349 52 l 1
119 52 m 1
 113 54 l 1
 117 46 l 1
 123 44 l 1
 119 52 l 1
120 270 m 1
 113 273 l 1
 117 266 l 1
 124 263 l 1
 120 270 l 1
107 296 m 1
 100 314 l 1
 107 332 l 1
 103 334 l 1
 93 314 l 1
 103 294 l 1
 107 296 l 1
119 355 m 1
 123 363 l 1
 117 361 l 1
 113 353 l 1
 119 355 l 1
EndSplineSet
EndChar

StartChar: t
Encoding: 116 116 70
Width: 304
VWidth: 0
Flags: W
HStem: 1 19<148 156> 359 20<65 128 148 156 176 238> 387 20<65 128 148 156 176 238> 580 20<148 156>
VStem: 45 20<379 387> 128 20<20 359 379 387 407 580> 156 20<20 359 379 387 407 580> 238 20<379 387>
LayerCount: 2
Back
Fore
SplineSet
45 397 m 1
 48 404 l 1
 55 407 l 1
 128 407 l 1
 129 594 l 1
 138 600 l 1
 169 599 l 1
 176 590 l 1
 176 407 l 1
 252 406 l 1
 258 397 l 1
 258 369 l 1
 256 362 l 1
 248 359 l 1
 176 359 l 1
 176 10 l 1
 169 1 l 1
 134 1 l 1
 128 10 l 1
 128 359 l 1
 51 360 l 1
 45 369 l 1
 45 397 l 1
65 387 m 1
 65 379 l 1
 128 379 l 1
 128 387 l 1
 65 387 l 1
148 580 m 1
 148 407 l 1
 156 407 l 1
 156 580 l 1
 148 580 l 1
148 387 m 1
 148 379 l 1
 156 379 l 1
 156 387 l 1
 148 387 l 1
148 359 m 1
 148 20 l 1
 156 20 l 1
 156 359 l 1
 148 359 l 1
176 379 m 1
 238 379 l 1
 238 387 l 1
 176 387 l 1
 176 379 l 1
EndSplineSet
EndChar

StartChar: u
Encoding: 117 117 71
Width: 553
VWidth: 0
Flags: W
HStem: 0 20<196 274 424 432> 28 20<223 274> 387 20<120 128 424 432>
VStem: 100 20<122 387> 128 20<123 387> 404 20<20 96 126 387> 432 20<20 387>
LayerCount: 2
Back
Fore
SplineSet
100 397 m 1
 106 406 l 1
 138 407 l 1
 145 404 l 1
 148 397 l 1
 148 123 l 1
 173 73 l 1
 223 48 l 1
 274 48 l 1
 326 74 l 1
 404 126 l 1
 404 397 l 1
 407 404 l 1
 414 407 l 1
 442 407 l 1
 449 404 l 1
 452 397 l 1
 452 10 l 1
 449 3 l 1
 442 0 l 1
 414 0 l 1
 405 6 l 1
 404 96 l 1
 338 31 l 1
 280 1 l 1
 193 0 l 1
 130 31 l 1
 100 120 l 1
 100 397 l 1
120 387 m 1
 120 122 l 1
 146 45 l 1
 196 20 l 1
 274 20 l 1
 325 46 l 1
 336 56 l 1
 280 29 l 1
 221 28 l 1
 157 61 l 1
 128 120 l 1
 128 387 l 1
 120 387 l 1
424 120 m 1
 424 20 l 1
 432 20 l 1
 432 387 l 1
 424 387 l 1
 424 120 l 1
EndSplineSet
EndChar

StartChar: v
Encoding: 118 118 72
Width: 443
VWidth: 0
Flags: W
HStem: 1 21G<212 230> 387 20<70 76 366 372>
LayerCount: 2
Back
Fore
SplineSet
45 397 m 1
 48 404 l 1
 55 407 l 1
 83 407 l 1
 92 401 l 1
 221 91 l 1
 350 401 l 1
 359 407 l 1
 387 407 l 1
 396 400 l 1
 396 393 l 1
 230 6 l 1
 225 1 l 1
 217 1 l 1
 212 6 l 1
 45 397 l 1
372 387 m 1
 366 387 l 1
 230 61 l 1
 221 55 l 1
 212 61 l 1
 76 387 l 1
 70 387 l 1
 221 35 l 1
 372 387 l 1
EndSplineSet
EndChar

StartChar: w
Encoding: 119 119 73
Width: 663
VWidth: 0
Flags: W
HStem: 0 22G<213 230 432 448> 387 20<97 103 559 565>
LayerCount: 2
Back
Fore
SplineSet
72 397 m 1
 75 404 l 1
 82 407 l 1
 110 407 l 1
 119 400 l 1
 221 122 l 1
 322 401 l 1
 331 407 l 1
 338 404 l 1
 441 122 l 1
 543 400 l 1
 552 407 l 1
 580 407 l 1
 587 404 l 1
 589 393 l 1
 448 3 l 1
 438 1 l 1
 432 7 l 1
 331 285 l 1
 230 6 l 1
 221 0 l 1
 213 3 l 1
 72 397 l 1
97 387 m 1
 221 39 l 1
 322 317 l 1
 331 324 l 1
 340 317 l 1
 441 39 l 1
 565 387 l 1
 559 387 l 1
 448 85 l 1
 441 83 l 1
 432 89 l 1
 331 367 l 1
 230 89 l 1
 220 83 l 1
 211 89 l 1
 103 387 l 1
 97 387 l 1
EndSplineSet
EndChar

StartChar: x
Encoding: 120 120 74
Width: 499
VWidth: 0
Flags: W
HStem: 0 21G<76 119 379 421> 387 20G<76 119 379 422>
LayerCount: 2
Back
Fore
SplineSet
73 397 m 1
 76 404 l 1
 83 407 l 1
 111 407 l 1
 119 403 l 1
 249 237 l 1
 379 403 l 1
 387 407 l 1
 415 407 l 1
 422 404 l 1
 425 397 l 1
 423 390 l 1
 276 203 l 1
 423 16 l 1
 425 9 l 1
 421 2 l 1
 387 0 l 1
 379 4 l 1
 249 170 l 1
 119 4 l 1
 111 0 l 1
 83 0 l 1
 76 3 l 1
 73 10 l 1
 75 16 l 1
 222 203 l 1
 75 390 l 1
 73 397 l 1
104 387 m 1
 235 220 l 1
 236 221 l 1
 104 387 l 1
394 387 m 1
 262 221 l 1
 263 220 l 1
 394 387 l 1
249 205 m 1
 248 203 l 1
 249 202 l 1
 250 203 l 1
 249 205 l 1
235 187 m 1
 104 20 l 1
 106 20 l 1
 235 187 l 1
262 186 m 1
 392 20 l 1
 394 20 l 1
 263 187 l 1
 262 186 l 1
EndSplineSet
EndChar

StartChar: y
Encoding: 121 121 75
Width: 443
VWidth: 0
Flags: W
HStem: -193 20<126 132> 387 20<70 76 366 372>
LayerCount: 2
Back
Fore
SplineSet
45 397 m 1
 48 404 l 1
 55 407 l 1
 83 407 l 1
 92 401 l 1
 221 91 l 1
 350 401 l 1
 359 407 l 1
 387 407 l 1
 394 404 l 1
 397 397 l 1
 147 -187 l 1
 138 -193 l 1
 107 -193 l 1
 101 -187 l 1
 101 -180 l 1
 198 38 l 1
 45 397 l 1
372 387 m 1
 366 387 l 1
 220 38 l 1
 221 35 l 1
 372 387 l 1
209 63 m 1
 76 387 l 1
 70 387 l 1
 209 63 l 1
126 -173 m 1
 132 -173 l 1
 210 10 l 1
 209 13 l 1
 126 -173 l 1
EndSplineSet
EndChar

StartChar: z
Encoding: 122 122 76
Width: 499
VWidth: 0
Flags: W
HStem: 0 20<104 405> 28 20<159 405> 359 20<93 339> 387 20<93 394>
VStem: 74 19<379 387> 405 20<20 28>
LayerCount: 2
Back
Fore
SplineSet
73 397 m 1
 76 404 l 1
 83 407 l 1
 415 407 l 1
 422 404 l 1
 425 397 l 1
 423 391 l 1
 159 48 l 1
 415 48 l 1
 422 45 l 1
 425 38 l 1
 425 10 l 1
 422 3 l 1
 415 0 l 1
 83 0 l 1
 76 3 l 1
 73 10 l 1
 75 16 l 1
 339 359 l 1
 83 359 l 1
 74 365 l 1
 73 397 l 1
93 387 m 1
 93 379 l 1
 359 379 l 1
 367 376 l 1
 369 369 l 1
 367 363 l 1
 104 20 l 1
 405 20 l 1
 405 28 l 1
 139 28 l 1
 131 31 l 1
 129 38 l 1
 131 44 l 1
 394 387 l 1
 93 387 l 1
EndSplineSet
EndChar

StartChar: degree
Encoding: 176 176 77
Width: 385
VWidth: 0
Flags: W
HStem: 359 241
VStem: 72 240
LayerCount: 2
Back
Fore
SplineSet
72 508 m 1
 103 571 l 1
 163 600 l 1
 221 600 l 1
 283 568 l 1
 312 508 l 1
 312 451 l 1
 281 388 l 1
 221 359 l 1
 163 359 l 1
 101 391 l 1
 72 451 l 1
 72 508 l 1
192 573 m 1
 151 563 l 1
 109 520 l 1
 99 480 l 1
 109 439 l 1
 151 396 l 1
 192 386 l 1
 233 396 l 1
 275 439 l 1
 285 480 l 1
 275 520 l 1
 233 563 l 1
 192 573 l 1
EndSplineSet
EndChar

StartChar: glyph78
Encoding: 256 8216 78
Width: 304
VWidth: 0
Flags: W
HStem: 387 20<142 161> 416 18<148 156> 470 20<142 161> 579 20G<150.333 200>
VStem: 101 19<428 448> 130 18<434 442> 156 18<434 442> 183 19<428 448>
LayerCount: 2
Back
Fore
SplineSet
100 507 m 1
 131 569 l 1
 189 599 l 1
 200 598 l 1
 203 591 l 1
 201 583 l 1
 147 555 l 1
 133 499 l 1
 142 490 l 1
 169 489 l 1
 202 456 l 1
 202 420 l 1
 169 387 l 1
 134 387 l 1
 101 420 l 1
 100 507 l 1
120 448 m 1
 120 428 l 1
 130 419 l 1
 130 457 l 1
 120 448 l 1
138 462 m 1
 171 460 l 1
 161 470 l 1
 142 470 l 1
 133 460 l 1
 138 462 l 1
174 457 m 1
 174 419 l 1
 183 428 l 1
 183 448 l 1
 174 457 l 1
171 416 m 1
 133 416 l 1
 142 407 l 1
 161 407 l 1
 171 416 l 1
148 442 m 1
 148 434 l 1
 156 434 l 1
 156 442 l 1
 148 442 l 1
EndSplineSet
EndChar

StartChar: glyph79
Encoding: 257 8217 79
Width: 304
VWidth: 0
Flags: W
HStem: 498 19<142 161> 526 19<148 156> 552 19<148 156> 580 19<142 161>
VStem: 100 20<539 558> 128 20<545 552> 156 18<545 552> 183 19<539 558>
LayerCount: 2
Back
Fore
SplineSet
203 535 m 1
 202 476 l 1
 174 418 l 1
 115 388 l 1
 104 389 l 1
 100 396 l 1
 103 403 l 1
 157 431 l 1
 171 488 l 1
 161 497 l 1
 134 498 l 1
 103 528 l 1
 100 535 l 1
 100 562 l 1
 103 569 l 1
 134 599 l 1
 169 599 l 1
 202 566 l 1
 203 535 l 1
128 562 m 1
 130 567 l 1
 120 558 l 1
 120 539 l 1
 130 530 l 1
 128 535 l 1
 128 562 l 1
133 571 m 1
 171 571 l 1
 161 580 l 1
 142 580 l 1
 133 571 l 1
148 552 m 1
 148 545 l 1
 156 545 l 1
 156 552 l 1
 148 552 l 1
174 567 m 1
 174 530 l 1
 183 539 l 1
 183 558 l 1
 174 567 l 1
171 526 m 1
 133 526 l 1
 142 517 l 1
 161 517 l 1
 171 526 l 1
EndSplineSet
EndChar

StartChar: glyph80
Encoding: 258 8242 80
Width: 249
VWidth: 0
Flags: W
HStem: 388 209 580 20G<131 145>
VStem: 100 20<517 558>
LayerCount: 2
Back
Fore
SplineSet
100 396 m 1xa0
 100 562 l 1
 103 569 l 1
 131 597 l 1xa0
 138 600 l 1x60
 145 597 l 1
 172 569 l 1
 175 559 l 1
 119 393 l 1
 114 388 l 1
 108 387 l 1
 103 390 l 1
 100 396 l 1xa0
141 521 m 1
 154 560 l 1
 146 567 l 1
 147 561 l 1
 141 521 l 1
142 571 m 1
 138 576 l 1
 133 571 l 1
 139 572 l 1
 142 571 l 1
129 567 m 1
 120 558 l 1
 120 517 l 1
 128 564 l 1
 129 567 l 1
EndSplineSet
EndChar

StartChar: glyph81
Encoding: 259 8243 81
Width: 497
VWidth: 0
Flags: W
HStem: 388 209 580 20G<130 145 379 393>
VStem: 100 20<517 558> 348 20<517 558>
LayerCount: 2
Back
Fore
SplineSet
349 396 m 1xb0
 348 562 l 1
 351 569 l 1
 379 597 l 1xb0
 386 600 l 1x70
 393 597 l 1
 421 569 l 1
 423 559 l 1
 368 393 l 1
 363 388 l 1
 357 387 l 1
 351 390 l 1
 349 396 l 1xb0
389 521 m 1
 402 560 l 1
 395 567 l 1
 396 561 l 1
 389 521 l 1
391 571 m 1
 386 576 l 1
 381 571 l 1
 388 572 l 1
 391 571 l 1
377 567 m 1
 368 558 l 1
 368 517 l 1
 376 564 l 1
 377 567 l 1
100 396 m 1
 100 562 l 1
 103 569 l 1
 130 597 l 1xb0
 138 600 l 1x70
 145 597 l 1
 172 569 l 1
 175 559 l 1
 119 393 l 1
 114 388 l 1
 108 387 l 1
 103 390 l 1
 100 396 l 1
141 521 m 1
 154 560 l 1
 146 567 l 1
 147 561 l 1
 141 521 l 1
142 571 m 1
 138 576 l 1
 133 571 l 1
 139 572 l 1
 142 571 l 1
129 567 m 1
 120 558 l 1
 120 517 l 1
 128 564 l 1
 129 567 l 1
EndSplineSet
EndChar

